<?xml version="1.0" encoding="UTF-8"?>
<svg version="1.1" xmlns="http://www.w3.org/2000/svg" width="1920" height="411">
<path d="M0 0 C7.48103992 -0.56224935 12.43303874 0.4872124 19 4 C20.24037807 4.63640647 21.48130932 5.27173541 22.72265625 5.90625 C24.06604649 6.6023511 25.40849119 7.30027991 26.75 8 C27.38832764 8.33193359 28.02665527 8.66386719 28.68432617 9.00585938 C32.45818001 11.02016437 35.72018989 13.26390173 39 16 C40.31138904 16.70885894 41.63777017 17.39456452 43 18 C43 18.66 43 19.32 43 20 C43.5775 20.28875 44.155 20.5775 44.75 20.875 C45.4925 21.24625 46.235 21.6175 47 22 C47.639375 22.268125 48.27875 22.53625 48.9375 22.8125 C52.82850024 25.05277286 55.57880714 27.73642141 57 32 C57.66 32 58.32 32 59 32 C59 32.66 59 33.32 59 34 C59.61875 34.226875 60.2375 34.45375 60.875 34.6875 C63.6219805 36.38416443 63.86635273 38.05251711 65 41 C65.99 41.33 66.98 41.66 68 42 C68 42.99 68 43.98 68 45 C68.66 45 69.32 45 70 45 C75.42638776 51.83724858 79.60206957 59.77487786 82.97265625 67.7890625 C83.96077535 70.05303113 83.96077535 70.05303113 85.421875 72.1796875 C95.43691157 90.07784691 96.30142433 115.45829915 90.98730469 134.85107422 C89.13417397 140.8437686 86.93333198 146.44164421 84 152 C83.34 152 82.68 152 82 152 C81.9175 153.051875 81.835 154.10375 81.75 155.1875 C80.91610505 159.42646601 79.75374923 160.77417947 77 164 C75.5552596 166.615225 74.26287332 169.29288326 73 172 C72.34 172 71.68 172 71 172 C70.67 173.98 70.34 175.96 70 178 C69.34 178 68.68 178 68 178 C67.72414062 178.56203125 67.44828125 179.1240625 67.1640625 179.703125 C65.95631972 182.08618794 64.67823191 184.4179008 63.375 186.75 C62.70597656 187.94882812 62.70597656 187.94882812 62.0234375 189.171875 C61.68570313 189.77515625 61.34796875 190.3784375 61 191 C60.34 191 59.68 191 59 191 C59 191.99 59 192.98 59 194 C58.34 194 57.68 194 57 194 C56.76925781 194.67160156 56.53851563 195.34320313 56.30078125 196.03515625 C54.64881075 199.80045837 52.48725685 203.04036285 50.1875 206.4375 C49.76146484 207.08009766 49.33542969 207.72269531 48.89648438 208.38476562 C46.83297417 211.45973922 44.71754421 214.40602954 42.3203125 217.23046875 C40.48675041 219.4190134 39.03362768 221.38217096 37.6875 223.875 C37.130625 224.90625 36.57375 225.9375 36 227 C35.34 227 34.68 227 34 227 C33.8453125 228.0828125 33.8453125 228.0828125 33.6875 229.1875 C32.93206053 232.27793421 31.84468685 234.41743841 30 237 C29.34 237 28.68 237 28 237 C27.87625 237.556875 27.7525 238.11375 27.625 238.6875 C26.93456646 241.2421041 26.10518316 243.59460135 25 246 C24.34 246.33 23.68 246.66 23 247 C22.34786708 249.02463255 22.34786708 249.02463255 22 251 C21.34 251 20.68 251 20 251 C19.9175 251.86625 19.835 252.7325 19.75 253.625 C19 257 19 257 17.1875 259.6875 C14.22105694 264.17954235 12.70101461 268.91821884 11 274 C10.731875 274.79019531 10.46375 275.58039063 10.1875 276.39453125 C9.69170056 277.86901813 9.2020022 279.34557208 8.71875 280.82421875 C8.23440338 282.29042021 7.73401502 283.75140756 7.21875 285.20703125 C3.41977635 296.05310103 2.62710558 306.27546377 2.62939453 317.68359375 C2.62504556 320.09968925 2.58869694 322.5139164 2.55078125 324.9296875 C2.47473731 335.680983 3.09281783 347.18563566 8 357 C8.125 360.0625 8.125 360.0625 8 363 C7.67 363.33 7.34 363.66 7 364 C5.30858344 363.91036938 3.62040398 363.75422324 1.9375 363.5625 C1.01839844 363.46066406 0.09929687 363.35882813 -0.84765625 363.25390625 C-1.55792969 363.17011719 -2.26820312 363.08632813 -3 363 C-3 362.34 -3 361.68 -3 361 C-4.216875 360.896875 -5.43375 360.79375 -6.6875 360.6875 C-10.50897127 360.20731513 -12.73889735 359.09642313 -16 357 C-18.61446714 355.97142437 -21.24304789 355.0024682 -23.890625 354.0625 C-26 353 -26 353 -27 350 C-27.94875 349.95875 -28.8975 349.9175 -29.875 349.875 C-34.42755505 349.25503824 -37.77495422 346.94024542 -41.5703125 344.47265625 C-43.97803154 342.91745014 -43.97803154 342.91745014 -46.7421875 341.93359375 C-49 341 -49 341 -50 339 C-51.74686611 337.98200863 -51.74686611 337.98200863 -53.8125 337.0625 C-56.79503342 335.62210235 -59.53620296 334.25848062 -62 332 C-62 331.34 -62 330.68 -62 330 C-63.0828125 329.9071875 -63.0828125 329.9071875 -64.1875 329.8125 C-67.8999813 328.7400054 -69.42615096 326.83783356 -72 324 C-73.1446875 322.9171875 -73.1446875 322.9171875 -74.3125 321.8125 C-76 320 -76 320 -76 318 C-76.89138672 317.60941406 -76.89138672 317.60941406 -77.80078125 317.2109375 C-80.14110539 315.92230431 -81.46596641 314.65189559 -83.1875 312.625 C-83.69667969 312.03976562 -84.20585938 311.45453125 -84.73046875 310.8515625 C-86 309 -86 309 -86.48828125 306.8359375 C-86.65714844 306.23007812 -86.82601562 305.62421875 -87 305 C-87.99 304.67 -88.98 304.34 -90 304 C-91.43173031 301.786509 -92.67035752 299.64564763 -93.875 297.3125 C-94.40009155 296.31549072 -94.40009155 296.31549072 -94.93579102 295.29833984 C-97.87064104 289.57460516 -100.07676073 283.73347765 -102.08984375 277.6328125 C-102.7487128 275.10553031 -102.7487128 275.10553031 -104 274 C-104.28515039 272.40591974 -104.51451785 270.80176569 -104.71875 269.1953125 C-104.84636719 268.21949219 -104.97398438 267.24367188 -105.10546875 266.23828125 C-105.23566406 265.21089844 -105.36585937 264.18351562 -105.5 263.125 C-105.75774436 261.10642782 -106.01804982 259.08818055 -106.28125 257.0703125 C-106.45237305 255.72090576 -106.45237305 255.72090576 -106.62695312 254.34423828 C-106.95772172 251.85482335 -106.95772172 251.85482335 -108 249 C-108.23808787 244.69160997 -108.18519906 240.37675346 -108.1875 236.0625 C-108.19974609 234.88880859 -108.21199219 233.71511719 -108.22460938 232.50585938 C-108.23583202 225.73860699 -107.74051164 219.37752396 -106.49682617 212.72631836 C-106.05068363 210.27812485 -105.72342489 207.86522196 -105.47265625 205.390625 C-105.36727539 204.35228516 -105.36727539 204.35228516 -105.25976562 203.29296875 C-105.1267955 201.91587216 -104.99930607 200.53823673 -104.87695312 199.16015625 C-104.34458414 194.04749557 -102.94025609 189.74134303 -101 185 C-100.43539062 183.41445313 -100.43539062 183.41445313 -99.859375 181.796875 C-95.52525954 169.89331846 -89.27230893 158.66053548 -81 149 C-80.34 149 -79.68 149 -79 149 C-78.67 148.01 -78.34 147.02 -78 146 C-77.34 146 -76.68 146 -76 146 C-75.61134766 145.13955078 -75.61134766 145.13955078 -75.21484375 144.26171875 C-73.89809397 141.81027784 -72.39035287 139.90765178 -70.5625 137.8125 C-69.96566406 137.11769531 -69.36882812 136.42289063 -68.75390625 135.70703125 C-67 134 -67 134 -64 133 C-64 132.34 -64 131.68 -64 131 C-63.34 131 -62.68 131 -62 131 C-61.34 129.68 -60.68 128.36 -60 127 C-59.34 127 -58.68 127 -58 127 C-58 126.34 -58 125.68 -58 125 C-57.34 125 -56.68 125 -56 125 C-55.773125 124.443125 -55.54625 123.88625 -55.3125 123.3125 C-53.15546167 119.5120039 -50.07623141 116.8213345 -46.625 114.1875 C-43.76736969 111.8061414 -41.49791072 109.23059113 -39.08984375 106.40625 C-37.06846757 104.07883369 -34.98817329 101.81509903 -32.88745117 99.55932617 C-26.32463336 92.50145155 -20.59892413 85.49032146 -16 77 C-15.34 77 -14.68 77 -14 77 C-13.9175 76.13375 -13.835 75.2675 -13.75 74.375 C-12.88995645 70.50480404 -11.24727369 68.23045593 -9 65 C-8.23060319 62.77397385 -8.23060319 62.77397385 -8 61 C-7.34 61 -6.68 61 -6 61 C-5.92652344 60.07767578 -5.92652344 60.07767578 -5.8515625 59.13671875 C-5.77679688 58.32847656 -5.70203125 57.52023438 -5.625 56.6875 C-5.55539063 55.88699219 -5.48578125 55.08648437 -5.4140625 54.26171875 C-5 52 -5 52 -3 49 C-2.44853309 46.39399853 -2.44853309 46.39399853 -2.1484375 43.44140625 C-2.01953125 42.33216797 -1.890625 41.22292969 -1.7578125 40.08007812 C-1.63148437 38.91927734 -1.50515625 37.75847656 -1.375 36.5625 C-1.2409375 35.43650391 -1.106875 34.31050781 -0.96875 33.15039062 C0.0339789 24.25372964 0.68037539 15.34023758 -0.5625 6.4375 C-1 3 -1 3 0 0 Z " fill="#FE851A" transform="translate(113,2)"/>
<path d="M0 0 C2.42578125 0.05859375 2.42578125 0.05859375 5.3125 0.4375 C8.34149949 0.83007156 10.61564569 1.08701274 13.60546875 0.41015625 C16.55900514 -0.09575129 17.39974402 0.63633192 20 2 C22.07712129 2.21705368 24.16316328 2.35590567 26.25 2.4375 C33.13867896 2.87094497 38.18950529 4.12633686 44 8 C44.7425 8.28875 45.485 8.5775 46.25 8.875 C56.18251095 12.93829993 64.840281 20.08662637 72 28 C72 28.66 72 29.32 72 30 C72.99 30.33 73.98 30.66 75 31 C81.3451415 39.28477006 86.38320484 48.90664723 89 59 C89.50903484 60.33788216 90.03043443 61.67110897 90.5625 63 C92.19297064 67.2326359 93 71.4473549 93 76 C93.16153564 76.75732422 93.32307129 77.51464844 93.48950195 78.29492188 C96.68707309 95.23853174 93.95374577 114.05011282 88 130 C87.70222656 130.85335937 87.40445312 131.70671875 87.09765625 132.5859375 C83.88098462 141.33859765 78.82672666 148.77629174 73 156 C72.34 156.99 71.68 157.98 71 159 C70.34 159 69.68 159 69 159 C68.731875 159.639375 68.46375 160.27875 68.1875 160.9375 C67 163 67 163 64 164 C63.67 164.99 63.34 165.98 63 167 C55.04375151 173.76117413 41.92423238 183 31 183 C29.33157466 183.32441604 27.66519519 183.65939189 26 184 C24 184.33333333 22 184.66666667 20 185 C18.93652344 185.25716797 18.93652344 185.25716797 17.8515625 185.51953125 C14.01243527 186.16639789 10.26130995 186.18418404 6.375 186.1875 C5.611875 186.19974609 4.84875 186.21199219 4.0625 186.22460938 C0.17993678 186.23482665 -1.69678923 186.20214051 -5 184 C-6.08023437 184 -7.16046875 184 -8.2734375 184 C-23.56113715 184 -38.34007111 172.4858396 -48.75 162.3125 C-49.86375 161.1678125 -49.86375 161.1678125 -51 160 C-51.99881023 158.99881165 -52.99856219 157.99856012 -54 157 C-54.00238835 157.5547595 -54.00477671 158.109519 -54.00723743 158.6810894 C-54.06632445 172.16776167 -54.14202386 185.65425208 -54.23571491 199.1407299 C-54.28051773 205.66265513 -54.31975184 212.18451644 -54.34643555 218.70654297 C-54.37236978 224.99602339 -54.41270156 231.28525916 -54.46318626 237.57458878 C-54.47992206 239.97882173 -54.49139432 242.38309706 -54.49761391 244.78738022 C-54.50718216 248.14481244 -54.53515384 251.50160917 -54.56762695 254.85888672 C-54.56619186 255.86157593 -54.56475677 256.86426514 -54.5632782 257.89733887 C-54.57581635 258.80881683 -54.58835449 259.7202948 -54.60127258 260.65939331 C-54.60588155 261.45397886 -54.61049051 262.24856441 -54.61523914 263.06722832 C-54.80569577 264.0239503 -54.80569577 264.0239503 -55 265 C-58.58668313 267.39112209 -60.16396569 267.23381027 -64.41796875 267.1953125 C-65.67158203 267.18886719 -66.92519531 267.18242187 -68.21679688 267.17578125 C-69.52712891 267.15902344 -70.83746094 267.14226562 -72.1875 267.125 C-73.52277987 267.11496639 -74.85806689 267.1058412 -76.19335938 267.09765625 C-79.46242015 267.07405292 -82.73112028 267.04112594 -86 267 C-87.16912078 264.66175845 -87.12530439 263.30406372 -87.12584114 260.69897461 C-87.12844889 259.79054306 -87.13105664 258.88211151 -87.13374341 257.94615173 C-87.13151268 256.9416951 -87.12928196 255.93723846 -87.12698364 254.90234375 C-87.12854363 253.84032242 -87.13010362 252.77830109 -87.13171089 251.68409729 C-87.13572059 248.10188435 -87.13253134 244.5197133 -87.12939453 240.9375 C-87.13074858 238.378906 -87.13252854 235.82031219 -87.13470459 233.26171875 C-87.13880276 227.01952037 -87.13818678 220.77733768 -87.13529195 214.53513908 C-87.13303707 209.46369198 -87.13272576 204.39224824 -87.13381577 199.32080078 C-87.133969 198.60005528 -87.13412223 197.87930979 -87.13428011 197.13672352 C-87.13459982 195.67271805 -87.13492403 194.20871258 -87.1352527 192.74470711 C-87.13810685 179.00439385 -87.13482148 165.26408726 -87.12945233 151.5237751 C-87.12498435 139.72418006 -87.1257603 127.92459486 -87.13037109 116.125 C-87.13571799 102.43513324 -87.13783217 88.74527232 -87.13475883 75.05540466 C-87.13444027 73.59666952 -87.1341259 72.13793437 -87.13381577 70.67919922 C-87.13366149 69.96140195 -87.13350721 69.24360468 -87.13334826 68.50405598 C-87.13248346 63.43645907 -87.13394521 58.36886586 -87.13629532 53.30126953 C-87.13938655 46.48550686 -87.13719778 39.66976571 -87.13140106 32.85400391 C-87.13007363 30.34570344 -87.1304673 27.83740142 -87.13266373 25.32910156 C-87.13537585 21.91859826 -87.13199329 18.50815564 -87.12698364 15.09765625 C-87.12921436 14.09319962 -87.13144509 13.08874298 -87.13374341 12.05384827 C-87.13113566 11.14541672 -87.12852791 10.23698517 -87.12584114 9.30102539 C-87.12567879 8.51305069 -87.12551644 7.72507599 -87.12534916 6.91322327 C-87 5 -87 5 -86 3 C-81.90661348 2.95060885 -77.81334202 2.91428499 -73.71972656 2.89013672 C-72.32679219 2.88007123 -70.93387898 2.86641766 -69.54101562 2.84912109 C-67.5404564 2.8248978 -65.53974385 2.81459186 -63.5390625 2.8046875 C-61.73236084 2.78897705 -61.73236084 2.78897705 -59.88916016 2.77294922 C-57 3 -57 3 -55 5 C-54.68115234 7.43017578 -54.68115234 7.43017578 -54.5859375 10.4453125 C-54.52792969 12.05986328 -54.52792969 12.05986328 -54.46875 13.70703125 C-54.4378125 14.83496094 -54.406875 15.96289062 -54.375 17.125 C-54.31699219 18.82849609 -54.31699219 18.82849609 -54.2578125 20.56640625 C-54.16332399 23.37743956 -54.07776459 26.18846233 -54 29 C-53.17757813 28.13117188 -52.35515625 27.26234375 -51.5078125 26.3671875 C-45.17059149 19.78098039 -39.25708685 14.12854343 -31 10 C-30.1440625 9.54109375 -29.288125 9.0821875 -28.40625 8.609375 C-20.93319846 4.6927757 -13.29661419 1.89814203 -4.75 2.0625 C-1.85289148 2.31346333 -1.85289148 2.31346333 0 0 Z M-8 29 C-8 29.33 -8 29.66 -8 30 C-8.81082031 30.21914062 -9.62164063 30.43828125 -10.45703125 30.6640625 C-18.27955887 32.90427413 -25.03458763 35.81405507 -32 40 C-32.9075 40.51433594 -33.815 41.02867187 -34.75 41.55859375 C-37.1146399 42.80269848 -37.1146399 42.80269848 -38 45 C-38.66 45.66 -39.32 46.32 -40 47 C-40.474375 47.804375 -40.94875 48.60875 -41.4375 49.4375 C-43 52 -43 52 -44.41015625 53.2890625 C-50.78158009 60.14577906 -53.16777737 71.07996878 -55 80 C-55.33 80 -55.66 80 -56 80 C-56.05794812 84.27077656 -56.09357874 88.54145236 -56.125 92.8125 C-56.14175781 94.02744141 -56.15851563 95.24238281 -56.17578125 96.49414062 C-56.18222656 97.65751953 -56.18867187 98.82089844 -56.1953125 100.01953125 C-56.20578613 101.09307861 -56.21625977 102.16662598 -56.22705078 103.27270508 C-56.20315543 106.21933741 -56.20315543 106.21933741 -54 109 C-53.76171875 110.98046875 -53.76171875 110.98046875 -53.6875 113.1875 C-53.2849592 117.70327583 -51.81684623 120.41214671 -49.2578125 124.08984375 C-48 126 -48 126 -46.5 129.6875 C-44.85460323 133.32108452 -42.86986514 135.28118039 -40 138 C-39.67 138.99 -39.34 139.98 -39 141 C-37.19215479 142.02963418 -37.19215479 142.02963418 -35 143 C-32.44488627 144.73616702 -29.94494848 146.53961024 -27.4375 148.34375 C-23.08846037 151.30143761 -23.08846037 151.30143761 -18 152 C-17.67 152.66 -17.34 153.32 -17 154 C-14.67793475 154.70491267 -12.34406932 155.37212429 -10 156 C-9.67 156.33 -9.34 156.66 -9 157 C-7.31614925 157.09934776 -5.62818403 157.1308005 -3.94140625 157.1328125 C-2.40323242 157.13474609 -2.40323242 157.13474609 -0.83398438 157.13671875 C0.24560547 157.13285156 1.32519531 157.12898437 2.4375 157.125 C3.51322266 157.12886719 4.58894531 157.13273438 5.69726562 157.13671875 C6.72400391 157.13542969 7.75074219 157.13414062 8.80859375 157.1328125 C9.75532959 157.13168457 10.70206543 157.13055664 11.67749023 157.12939453 C14.02534473 157.15264716 14.02534473 157.15264716 16 156 C16 155.34 16 154.68 16 154 C17.5159375 153.814375 17.5159375 153.814375 19.0625 153.625 C22.87937612 153.01914665 26.31500112 152.12806088 30 151 C30 150.34 30 149.68 30 149 C30.56203125 148.90460938 31.1240625 148.80921875 31.703125 148.7109375 C40.74691693 145.91166857 47.22309559 136.65628558 52 129 C56.33973424 120.68653321 59.06059292 112.99227218 60.5 103.71484375 C61 101 61 101 62 99 C62.60527794 91.20122652 61.88883408 84.16459523 59.75390625 76.65625 C59.03300089 74.11627258 58.51335132 71.58814623 58 69 C57.35610218 66.99255385 56.69437747 64.99054876 56 63 C55.34 63 54.68 63 54 63 C53.9175 62.484375 53.835 61.96875 53.75 61.4375 C53.0478288 59.1554436 52.19765584 57.48566506 51 55.4375 C49 52 49 52 48 49 C37.34893296 38.69012891 37.34893296 38.69012891 24 34 C23.505 33.01 23.505 33.01 23 32 C21.11235097 31.31527335 21.11235097 31.31527335 18.9375 30.875 C18.20402344 30.70742187 17.47054688 30.53984375 16.71484375 30.3671875 C16.14894531 30.24601562 15.58304688 30.12484375 15 30 C15 29.67 15 29.34 15 29 C7.41 29 -0.18 29 -8 29 Z " fill="#FEFEFE" transform="translate(1301,140)"/>
<path d="M0 0 C1.19173828 0.00410889 2.38347656 0.00821777 3.61132812 0.01245117 C4.90425781 0.01438477 6.1971875 0.01631836 7.52929688 0.01831055 C8.5412915 0.02761597 8.5412915 0.02761597 9.57373047 0.03710938 C11.63456595 0.05534901 13.69495166 0.05761915 15.75585938 0.05737305 C25.86216911 0.10271541 25.86216911 0.10271541 28.14257812 1.24291992 C28.1881667 31.52866155 28.22357854 61.81440142 28.24470878 92.10016959 C28.24721031 95.67265544 28.24979894 99.24514121 28.25244141 102.81762695 C28.25296603 103.52886865 28.25349065 104.24011034 28.25403117 104.97290482 C28.26274263 116.50138091 28.27851666 128.02983714 28.29688372 139.55830143 C28.31556218 151.38049958 28.32669049 163.2026873 28.33075511 175.0248996 C28.33325725 181.66822672 28.33954026 188.31151679 28.35403824 194.95483017 C28.36755966 201.20095735 28.37181185 207.44702059 28.36879349 213.69316101 C28.3693461 215.99183118 28.37335577 218.29050336 28.38098907 220.58916092 C28.39086526 223.71519073 28.38857396 226.84097562 28.38308716 229.9670105 C28.38891284 230.88723051 28.39473852 231.80745052 28.40074074 232.75555599 C28.37082055 239.0146775 28.37082055 239.0146775 26.14257812 241.24291992 C23.28515625 241.50170898 23.28515625 241.50170898 19.67382812 241.50854492 C18.38089844 241.51112305 17.08796875 241.51370117 15.75585938 241.51635742 C15.08119629 241.51216797 14.4065332 241.50797852 13.71142578 241.50366211 C11.65041655 241.49296062 9.59027893 241.50355935 7.52929688 241.51635742 C6.23636719 241.5137793 4.9434375 241.51120117 3.61132812 241.50854492 C2.41958984 241.50628906 1.22785156 241.5040332 0 241.50170898 C-2.85742188 241.24291992 -2.85742188 241.24291992 -4.85742188 239.24291992 C-5.17626953 236.72094727 -5.17626953 236.72094727 -5.27148438 233.57885742 C-5.31015625 232.45737305 -5.34882812 231.33588867 -5.38867188 230.18041992 C-5.43507813 228.41698242 -5.43507813 228.41698242 -5.48242188 226.61791992 C-5.52109375 225.43456055 -5.55976562 224.25120117 -5.59960938 223.03198242 C-5.69411032 220.10245302 -5.77966746 217.17293395 -5.85742188 214.24291992 C-8.2341978 216.59725341 -10.46413081 218.93724738 -12.54492188 221.55541992 C-18.33228571 228.27161993 -25.13678563 232.5965382 -32.98242188 236.55541992 C-33.65128418 236.89307373 -34.32014648 237.23072754 -35.00927734 237.57861328 C-41.66519005 240.82125845 -47.42840408 242.24291992 -54.85742188 242.24291992 C-55.74042969 242.56776367 -56.6234375 242.89260742 -57.53320312 243.22729492 C-61.62393683 244.4771078 -65.23587821 244.53715475 -69.48242188 244.49291992 C-70.23265625 244.5006543 -70.98289062 244.50838867 -71.75585938 244.51635742 C-75.67972033 244.50244302 -78.47035013 244.23531507 -81.85742188 242.24291992 C-82.82679688 242.28416992 -83.79617188 242.32541992 -84.79492188 242.36791992 C-100.0317402 242.75944416 -115.78180833 231.5673136 -126.54492188 221.80541992 C-127.30804688 220.95979492 -128.07117188 220.11416992 -128.85742188 219.24291992 C-129.76041016 218.29352539 -129.76041016 218.29352539 -130.68164062 217.32495117 C-137.35459846 210.1435775 -142.87811043 202.64516252 -145.85742188 193.24291992 C-146.37304688 192.29416992 -146.88867188 191.34541992 -147.41992188 190.36791992 C-148.69988132 187.58539938 -149.12092574 185.95084598 -149.41992188 182.99291992 C-149.46710933 179.21963042 -149.46710933 179.21963042 -151.85742188 177.24291992 C-152.23632812 174.96557617 -152.23632812 174.96557617 -152.41992188 172.30541992 C-152.63448353 169.33220845 -152.90761545 167.09233918 -153.85742188 164.24291992 C-153.93978474 162.43199965 -153.96485815 160.61818583 -153.95507812 158.80541992 C-153.95185547 157.74581055 -153.94863281 156.68620117 -153.9453125 155.59448242 C-153.93693359 154.4884668 -153.92855469 153.38245117 -153.91992188 152.24291992 C-153.91541016 151.1369043 -153.91089844 150.03088867 -153.90625 148.89135742 C-153.89751792 146.84056533 -153.88673811 144.78978026 -153.87329102 142.73901367 C-153.8616439 140.90701181 -153.85742188 139.07495881 -153.85742188 137.24291992 C-153.41926968 132.6423219 -153.05371391 129.32174799 -150.85742188 125.24291992 C-151.18742187 124.58291992 -151.51742188 123.92291992 -151.85742188 123.24291992 C-150.86742187 122.74791992 -150.86742187 122.74791992 -149.85742188 122.24291992 C-149.50280563 120.2824213 -149.50280563 120.2824213 -149.41992188 117.99291992 C-149.06826385 114.05560591 -148.40251981 111.39884136 -145.85742188 108.24291992 C-145.19742187 108.24291992 -144.53742188 108.24291992 -143.85742188 108.24291992 C-144.18742187 107.25291992 -144.51742188 106.26291992 -144.85742188 105.24291992 C-142.11690882 98.05468895 -136.78693792 91.06475455 -131.85742188 85.24291992 C-131.19742187 85.24291992 -130.53742188 85.24291992 -129.85742188 85.24291992 C-129.6228125 84.66413086 -129.38820313 84.0853418 -129.14648438 83.48901367 C-125.46058304 77.06660984 -116.50593538 71.43666313 -109.85742188 68.24291992 C-108.86742187 68.24291992 -107.87742187 68.24291992 -106.85742188 68.24291992 C-106.52742187 67.58291992 -106.19742188 66.92291992 -105.85742188 66.24291992 C-100.01583296 63.22533501 -94.35583189 61.81295589 -87.85742188 61.24291992 C-86.86742187 60.91291992 -85.87742187 60.58291992 -84.85742188 60.24291992 C-83.66117188 60.07791992 -82.46492187 59.91291992 -81.23242188 59.74291992 C-78.02635311 59.6104668 -78.02635311 59.6104668 -76.85742188 58.24291992 C-74.35742188 58.11791992 -74.35742188 58.11791992 -71.85742188 58.24291992 C-71.52742187 58.57291992 -71.19742188 58.90291992 -70.85742188 59.24291992 C-67.02422958 59.41715594 -63.58906501 59.1209536 -59.85742188 58.24291992 C-59.85742188 58.90291992 -59.85742188 59.56291992 -59.85742188 60.24291992 C-59.30054688 60.2197168 -58.74367188 60.19651367 -58.16992188 60.17260742 C-49.0097939 59.95598277 -41.12690261 62.30799972 -32.85742188 66.24291992 C-32.19742188 66.90291992 -31.53742188 67.56291992 -30.85742188 68.24291992 C-29.84679687 68.63479492 -28.83617187 69.02666992 -27.79492188 69.43041992 C-22.90529935 71.43773864 -18.68750057 74.6265366 -14.85742188 78.24291992 C-14.52742187 79.23291992 -14.19742188 80.22291992 -13.85742188 81.24291992 C-12.86742187 81.24291992 -11.87742187 81.24291992 -10.85742188 81.24291992 C-10.85742188 82.23291992 -10.85742188 83.22291992 -10.85742188 84.24291992 C-9.89835937 84.70698242 -9.89835937 84.70698242 -8.91992188 85.18041992 C-6.85742188 86.24291992 -6.85742188 86.24291992 -5.85742188 87.24291992 C-5.8452916 85.65225204 -5.8452916 85.65225204 -5.83291626 84.02944946 C-5.7555465 74.05241794 -5.66783075 64.07552434 -5.56989479 54.09867287 C-5.51987575 48.96904854 -5.47354637 43.83944537 -5.43554688 38.7097168 C-5.39876471 33.76241837 -5.35242439 28.81529463 -5.29935837 23.86814499 C-5.28077671 21.97747222 -5.26568281 20.08676195 -5.25407791 18.19603348 C-5.23727972 15.55474068 -5.20826097 12.91385128 -5.17626953 10.27270508 C-5.17302925 9.09127174 -5.17302925 9.09127174 -5.16972351 7.88597107 C-5.05378461 0.42964078 -5.05378461 0.42964078 0 0 Z M-73.85742188 87.24291992 C-73.85742188 87.57291992 -73.85742188 87.90291992 -73.85742188 88.24291992 C-75.00082031 88.49686523 -76.14421875 88.75081055 -77.32226562 89.01245117 C-78.81331028 89.35942383 -80.3041873 89.70711745 -81.79492188 90.05541992 C-82.92704102 90.30388672 -82.92704102 90.30388672 -84.08203125 90.55737305 C-86.033126 91.02108615 -87.94997975 91.62367432 -89.85742188 92.24291992 C-90.18742188 93.23291992 -90.51742187 94.22291992 -90.85742188 95.24291992 C-93.47239526 96.48159153 -96.11254137 97.32795975 -98.85742188 98.24291992 C-105.99297376 105.0075644 -114.46362434 115.27393227 -116.41992188 125.05541992 C-116.56429687 125.77729492 -116.70867188 126.49916992 -116.85742188 127.24291992 C-117.84742188 127.73791992 -117.84742188 127.73791992 -118.85742188 128.24291992 C-120.90781335 135.53320071 -120.9910048 143.52142171 -121.48242188 151.05541992 C-121.53462891 151.79695313 -121.58683594 152.53848633 -121.640625 153.30249023 C-121.8557034 156.83202302 -121.92321451 159.86152027 -120.85742188 163.24291992 C-120.75429688 164.48041992 -120.65117187 165.71791992 -120.54492188 166.99291992 C-120.09370428 170.97251121 -118.68012013 173.85963978 -116.77929688 177.34448242 C-115.53303284 179.91094141 -115.13958631 182.42127553 -114.85742188 185.24291992 C-114.19742188 185.24291992 -113.53742187 185.24291992 -112.85742188 185.24291992 C-111.59570312 187.14916992 -111.59570312 187.14916992 -110.16992188 189.74291992 C-106.51198457 196.03922277 -102.64246474 202.15067816 -95.85742188 205.24291992 C-93.55816454 206.55791978 -91.266298 207.8846212 -88.97851562 209.21948242 C-86.79961678 210.46020168 -86.79961678 210.46020168 -83.85742188 210.24291992 C-83.52742187 210.90291992 -83.19742188 211.56291992 -82.85742188 212.24291992 C-80.55085174 212.99699093 -78.21166988 213.65435792 -75.85742188 214.24291992 C-75.16003906 214.42209961 -74.46265625 214.6012793 -73.74414062 214.78588867 C-69.47128678 215.46237568 -65.23966969 215.46775023 -60.91992188 215.49291992 C-60.03884766 215.51354492 -59.15777344 215.53416992 -58.25 215.55541992 C-52.92366969 215.58733801 -49.56451233 214.97375103 -44.85742188 212.24291992 C-43.86742187 212.24291992 -42.87742187 212.24291992 -41.85742188 212.24291992 C-41.85742188 211.58291992 -41.85742188 210.92291992 -41.85742188 210.24291992 C-41.32117188 210.11916992 -40.78492188 209.99541992 -40.23242188 209.86791992 C-37.39359328 209.12085976 -34.63518985 208.18988628 -31.85742188 207.24291992 C-31.85742188 206.58291992 -31.85742188 205.92291992 -31.85742188 205.24291992 C-29.85742188 204.24291992 -27.85742188 203.24291992 -25.85742188 202.24291992 C-25.85742188 201.58291992 -25.85742188 200.92291992 -25.85742188 200.24291992 C-24.86742187 199.91291992 -23.87742187 199.58291992 -22.85742188 199.24291992 C-22.85742188 198.58291992 -22.85742188 197.92291992 -22.85742188 197.24291992 C-22.19742188 197.24291992 -21.53742188 197.24291992 -20.85742188 197.24291992 C-18.8064629 194.87577239 -18.8064629 194.87577239 -16.73242188 191.93041992 C-16.00796875 190.94428711 -15.28351563 189.9581543 -14.53710938 188.94213867 C-12.59325125 186.3482658 -12.59325125 186.3482658 -12.85742188 183.24291992 C-12.19742188 182.91291992 -11.53742188 182.58291992 -10.85742188 182.24291992 C-7.64982314 177.75228169 -6.85742188 173.69757858 -6.85742188 168.24291992 C-6.54083863 166.38581998 -6.20503862 164.53196191 -5.85742188 162.68041992 C-3.4314729 148.19403892 -5.10460685 132.80312676 -10.85742188 119.24291992 C-11.51742187 119.24291992 -12.17742187 119.24291992 -12.85742188 119.24291992 C-12.36242187 117.75791992 -12.36242187 117.75791992 -11.85742188 116.24291992 C-12.41429687 115.72729492 -12.97117187 115.21166992 -13.54492188 114.68041992 C-20.85742188 106.97264965 -20.85742188 106.97264965 -20.85742188 103.24291992 C-22.50742187 102.91291992 -24.15742187 102.58291992 -25.85742188 102.24291992 C-25.85742188 101.58291992 -25.85742188 100.92291992 -25.85742188 100.24291992 C-28.49426935 97.84471687 -28.49426935 97.84471687 -31.85742188 97.24291992 C-32.35242188 96.25291992 -32.35242188 96.25291992 -32.85742188 95.24291992 C-37.10154098 92.8330773 -37.10154098 92.8330773 -41.85742188 92.24291992 C-42.35242188 91.25291992 -42.35242188 91.25291992 -42.85742188 90.24291992 C-44.97588473 89.55562738 -44.97588473 89.55562738 -47.41992188 89.11791992 C-48.24621094 88.9503418 -49.0725 88.78276367 -49.92382812 88.61010742 C-50.56191406 88.48893555 -51.2 88.36776367 -51.85742188 88.24291992 C-51.85742188 87.91291992 -51.85742188 87.58291992 -51.85742188 87.24291992 C-59.11742187 87.24291992 -66.37742187 87.24291992 -73.85742188 87.24291992 Z M-5.85742188 135.24291992 C-5.85742188 136.89291992 -5.85742188 138.54291992 -5.85742188 140.24291992 C-5.52742187 140.24291992 -5.19742188 140.24291992 -4.85742188 140.24291992 C-4.85742188 138.59291992 -4.85742188 136.94291992 -4.85742188 135.24291992 C-5.18742188 135.24291992 -5.51742187 135.24291992 -5.85742188 135.24291992 Z M-5.85742188 162.24291992 C-5.85742188 163.89291992 -5.85742188 165.54291992 -5.85742188 167.24291992 C-5.52742187 167.24291992 -5.19742188 167.24291992 -4.85742188 167.24291992 C-4.85742188 165.59291992 -4.85742188 163.94291992 -4.85742188 162.24291992 C-5.18742188 162.24291992 -5.51742187 162.24291992 -5.85742188 162.24291992 Z " fill="#FEFEFE" transform="translate(631.857421875,81.757080078125)"/>
<path d="M0 0 C0.495 0.495 0.495 0.495 1 1 C4.05081862 1.13867357 6.75365122 1.05038952 9.75 0.4375 C12 0 12 0 14 1 C14.87269531 0.97679687 15.74539063 0.95359375 16.64453125 0.9296875 C20.57670166 1.01208455 23.97733707 1.93263902 27.6875 3.125 C28.38649414 3.34655762 29.08548828 3.56811523 29.80566406 3.79638672 C37.56124482 6.36081808 44.53751458 9.99314236 51 15 C51.79277344 15.60457031 52.58554688 16.20914063 53.40234375 16.83203125 C54.23894531 17.48558594 55.07554687 18.13914063 55.9375 18.8125 C56.77152344 19.45832031 57.60554688 20.10414063 58.46484375 20.76953125 C61.35301286 23.31058605 63.60392331 25.99525982 66 29 C66.01981934 28.28344238 66.03963867 27.56688477 66.06005859 26.82861328 C66.15509519 23.5936937 66.26486019 20.35943906 66.375 17.125 C66.4059375 15.99707031 66.436875 14.86914062 66.46875 13.70703125 C66.52675781 12.09248047 66.52675781 12.09248047 66.5859375 10.4453125 C66.6173584 9.45031738 66.6487793 8.45532227 66.68115234 7.43017578 C67 5 67 5 69 3 C71.88916016 2.77294922 71.88916016 2.77294922 75.5390625 2.8046875 C77.49199219 2.81435547 77.49199219 2.81435547 79.484375 2.82421875 C80.86458595 2.84093071 82.24479429 2.85786061 83.625 2.875 C85.01301452 2.88502994 86.40103589 2.89415577 87.7890625 2.90234375 C91.19288026 2.92598137 94.59635506 2.95893133 98 3 C99.48497263 5.96994526 99.12602375 8.63825997 99.12698364 11.9533844 C99.12854363 12.67717645 99.13010362 13.4009685 99.13171089 14.14669365 C99.1357156 16.58422567 99.13253329 19.02169597 99.12939453 21.45922852 C99.13074879 23.20172156 99.13252887 24.94421433 99.13470459 26.68670654 C99.13927561 31.42824668 99.1374908 36.16976513 99.1343255 40.91130567 C99.1318006 45.86363615 99.13413977 50.81596473 99.13571167 55.76829529 C99.13753281 64.08503555 99.13512832 72.40176694 99.13037109 80.71850586 C99.12492679 90.34790207 99.12669257 99.97727712 99.1321975 109.60667282 C99.13672807 117.8605901 99.13737951 126.11450099 99.13475883 134.36841911 C99.13319598 139.30419031 99.13300255 144.23995155 99.13629532 149.17572212 C99.13917328 153.81396608 99.13719973 158.45218261 99.13140106 163.09042358 C99.13007314 164.79770296 99.13046813 166.50498463 99.13266373 168.21226311 C99.13537392 170.53274019 99.13199576 172.85312794 99.12698364 175.17359924 C99.1264181 177.1262084 99.1264181 177.1262084 99.12584114 179.1182642 C99 182 99 182 98 183 C93.88422411 183.21789186 89.76535077 183.18579188 85.64428711 183.18530273 C83.57449736 183.18748734 81.50524207 183.20563491 79.43554688 183.22460938 C78.13810547 183.22654297 76.84066406 183.22847656 75.50390625 183.23046875 C74.30580322 183.23457764 73.1077002 183.23868652 71.87329102 183.24291992 C69 183 69 183 67 181 C66.68115234 178.56982422 66.68115234 178.56982422 66.5859375 175.5546875 C66.52792969 173.94013672 66.52792969 173.94013672 66.46875 172.29296875 C66.42234375 170.60107422 66.42234375 170.60107422 66.375 168.875 C66.31699219 167.17150391 66.31699219 167.17150391 66.2578125 165.43359375 C66.16332399 162.62256044 66.07776459 159.81153767 66 157 C64.70884238 158.12278661 63.41866461 159.24670007 62.12890625 160.37109375 C61.05104858 161.30973267 61.05104858 161.30973267 59.95141602 162.26733398 C58.57450653 163.48989456 57.23952421 164.76047579 55.9375 166.0625 C50.64985988 171.35014012 45.64633791 174.91011643 39 178.25 C38.32356445 178.5912793 37.64712891 178.93255859 36.95019531 179.28417969 C30.25382222 182.54951446 24.48215549 184 17 184 C16.01 184.66 15.02 185.32 14 186 C11.77929688 186.25878906 11.77929688 186.25878906 9.21875 186.265625 C8.29449219 186.26820313 7.37023438 186.27078125 6.41796875 186.2734375 C4.97357422 186.26183594 4.97357422 186.26183594 3.5 186.25 C2.53707031 186.25773438 1.57414062 186.26546875 0.58203125 186.2734375 C-0.34222656 186.27085937 -1.26648437 186.26828125 -2.21875 186.265625 C-3.4862207 186.26224121 -3.4862207 186.26224121 -4.77929688 186.25878906 C-7 186 -7 186 -10 184 C-10.94875 184.04125 -11.8975 184.0825 -12.875 184.125 C-25.42048653 184.44260725 -38.49863923 176.60108861 -48 169 C-48 168.34 -48 167.68 -48 167 C-48.8971875 166.8453125 -48.8971875 166.8453125 -49.8125 166.6875 C-52.31258286 165.90175967 -53.37535082 165.03081147 -55 163 C-55 162.34 -55 161.68 -55 161 C-55.9590625 160.62875 -55.9590625 160.62875 -56.9375 160.25 C-59.544301 158.67012061 -59.29195078 157.83219689 -60 155 C-60.61875 154.690625 -61.2375 154.38125 -61.875 154.0625 C-64.77082975 152.61458512 -65.41046775 150.80804345 -67 148 C-67.57878906 147.030625 -68.15757813 146.06125 -68.75390625 145.0625 C-69.64916016 143.5465625 -69.64916016 143.5465625 -70.5625 142 C-71.46162109 140.4840625 -71.46162109 140.4840625 -72.37890625 138.9375 C-75.41131671 133.4426261 -76.81216204 128.10888094 -78 122 C-78.33 122 -78.66 122 -79 122 C-79.06058594 121.39671875 -79.12117188 120.7934375 -79.18359375 120.171875 C-79.26738281 119.37265625 -79.35117188 118.5734375 -79.4375 117.75 C-79.51871094 116.96109375 -79.59992188 116.1721875 -79.68359375 115.359375 C-79.94463662 113.0104271 -79.94463662 113.0104271 -80.59765625 110.828125 C-81 109 -81 109 -80 107 C-80.66 107 -81.32 107 -82 107 C-82.04969106 102.83741853 -82.08585642 98.67499739 -82.10986328 94.51220703 C-82.11987856 93.09811391 -82.13349474 91.68404127 -82.15087891 90.27001953 C-82.17532559 88.22944054 -82.18652784 86.18913697 -82.1953125 84.1484375 C-82.20578613 82.92302246 -82.21625977 81.69760742 -82.22705078 80.43505859 C-81.99619185 76.94238634 -81.18714554 74.27364377 -80 71 C-79.77780412 69.00023704 -79.55580102 67.00044629 -79.33984375 65 C-78.79035277 61.76621402 -77.3553566 58.97135869 -76 56 C-75.59655775 54.62721328 -75.20127406 53.25201262 -74.8125 51.875 C-71.24450183 41.02310918 -63.88735664 32.04312132 -56 24 C-55.23429687 23.18144531 -54.46859375 22.36289063 -53.6796875 21.51953125 C-50.60132912 18.62515639 -47.37898816 16.42726947 -43.8125 14.1875 C-43.18408203 13.78080078 -42.55566406 13.37410156 -41.90820312 12.95507812 C-37.26450893 10 -37.26450893 10 -35 10 C-34.67 9.34 -34.34 8.68 -34 8 C-26.39277558 4.16050466 -19.16453663 2.4353621 -10.6796875 2.23828125 C-6.51400411 1.86786334 -4.45898647 -0.35202525 0 0 Z M14 2 C14 2.33 14 2.66 14 3 C15.65 3 17.3 3 19 3 C19 2.67 19 2.34 19 2 C17.35 2 15.7 2 14 2 Z M-4 30 C-5.57944433 30.47156072 -7.16346229 30.92788483 -8.75 31.375 C-23.85520482 35.89790517 -33.46314927 46.00058515 -41.49609375 59.109375 C-43.23077073 61.90048559 -43.23077073 61.90048559 -43 65 C-43.99 65.495 -43.99 65.495 -45 66 C-47.23138437 71.9066057 -48.19192493 77.40410859 -48.71875 83.66015625 C-49 86 -49 86 -50 89 C-50.29484891 93.91414857 -49.59977973 98.06339484 -48.4375 102.78515625 C-47.83105661 105.85527593 -48 108.88004774 -48 112 C-47.34 112.66 -46.68 113.32 -46 114 C-45.11363737 116.08238399 -44.28806743 118.19096482 -43.5 120.3125 C-43.0771875 121.44300781 -42.654375 122.57351563 -42.21875 123.73828125 C-41.46078317 125.76681427 -40.72697748 127.8047559 -40.03125 129.85546875 C-39.6909375 130.56316406 -39.350625 131.27085937 -39 132 C-38.01 132.33 -37.02 132.66 -36 133 C-35.79375 133.86625 -35.5875 134.7325 -35.375 135.625 C-33.34702251 140.60276293 -29.4810065 143.17429068 -25 146 C-24.34 146 -23.68 146 -23 146 C-22.67 146.99 -22.34 147.98 -22 149 C-19.70401807 150.08301035 -17.36522558 151.07796291 -15 152 C-14.34 152.350625 -13.68 152.70125 -13 153.0625 C-10.11101392 154.41671223 -7.06465583 155.13264458 -4 156 C-3.67 156.33 -3.34 156.66 -3 157 C0.97275815 157.25256877 4.95766175 157.18522451 8.9375 157.1875 C10.06091797 157.19974609 11.18433594 157.21199219 12.34179688 157.22460938 C13.41365234 157.22654297 14.48550781 157.22847656 15.58984375 157.23046875 C16.57847412 157.23457764 17.56710449 157.23868652 18.58569336 157.24291992 C21.18307091 157.23877244 21.18307091 157.23877244 23 155 C25.01622747 154.77236141 27.03265558 154.54608344 29.05078125 154.3359375 C31.68615349 153.88174509 32.99720379 152.7443709 35 151 C36.03125 150.46375 37.0625 149.9275 38.125 149.375 C43.35724634 146.45679725 47.86820136 142.30638168 52 138 C52 137.34 52 136.68 52 136 C52.66 136 53.32 136 54 136 C56.89484916 132.83375873 58.49433387 129.97154954 60 126 C60.62068359 124.43765625 60.62068359 124.43765625 61.25390625 122.84375 C61.68574219 121.7403125 62.11757812 120.636875 62.5625 119.5 C62.99691406 118.3965625 63.43132812 117.293125 63.87890625 116.15625 C64.85354015 113.41233297 65.48658113 110.85558687 66 108 C66.495 106.515 66.495 106.515 67 105 C67.08315752 102.93501108 67.10735878 100.8674211 67.09765625 98.80078125 C67.09443359 97.59228516 67.09121094 96.38378906 67.08789062 95.13867188 C67.07951172 93.87603516 67.07113281 92.61339844 67.0625 91.3125 C67.05798828 90.03826172 67.05347656 88.76402344 67.04882812 87.45117188 C67.03702873 84.30073436 67.02056597 81.15039051 67 78 C66.67 78 66.34 78 66 78 C65.01 72.555 65.01 72.555 64 67 C63.34 67 62.68 67 62 67 C61.896875 66.29875 61.79375 65.5975 61.6875 64.875 C60.89945728 61.57954861 59.67130238 58.94149219 58 56 C57.34 55.67 56.68 55.34 56 55 C56 53.68 56 52.36 56 51 C54.60460005 49.26292799 54.60460005 49.26292799 52.625 47.75 C51.89925781 47.15316406 51.17351562 46.55632812 50.42578125 45.94140625 C49.22501953 44.98041016 49.22501953 44.98041016 48 44 C47.14792969 43.28714844 46.29585937 42.57429688 45.41796875 41.83984375 C38.57027765 35.92395582 38.57027765 35.92395582 30 34 C29.505 33.01 29.505 33.01 29 32 C27.845 31.835 26.69 31.67 25.5 31.5 C24.345 31.335 23.19 31.17 22 31 C21.505 30.01 21.505 30.01 21 29 C20.67 29.33 20.34 29.66 20 30 C18.66325566 29.6806202 17.33045872 29.34462802 16 29 C14.58279247 28.91161214 13.16214689 28.86941065 11.7421875 28.8671875 C10.95199219 28.86589844 10.16179687 28.86460937 9.34765625 28.86328125 C8.12369141 28.86908203 8.12369141 28.86908203 6.875 28.875 C5.63943359 28.86919922 5.63943359 28.86919922 4.37890625 28.86328125 C0.05380837 28.74445419 0.05380837 28.74445419 -4 30 Z " fill="#FEFEFE" transform="translate(1501,140)"/>
<path d="M0 0 C2.5 0.125 2.5 0.125 3.5 1.125 C6 1.29166667 6 1.29166667 8.5 1.125 C8.83 0.795 9.16 0.465 9.5 0.125 C13.22224599 -0.16886153 14.27786243 -0.02309171 17.5 2.125 C19.51795938 2.29190958 19.51795938 2.29190958 21.6875 2.125 C34.38039445 1.83652513 45.48826196 8.61913098 56.5 14.125 C56.5 14.785 56.5 15.445 56.5 16.125 C57.21542969 16.36347656 57.93085937 16.60195312 58.66796875 16.84765625 C70.54372128 22.20403015 79.41246915 35.52542965 84.5 47.125 C84.84630774 48.45502249 85.18069257 49.78823837 85.5 51.125 C86.45368083 53.60457016 87.46911706 56.05165302 88.5 58.5 C92.19858412 68.20878333 92.58366111 77.548644 92.625 87.8125 C92.62967285 88.62041992 92.6343457 89.42833984 92.63916016 90.26074219 C92.60507273 103.01992727 92.60507273 103.01992727 89.5 106.125 C87.0987072 106.37109566 87.0987072 106.37109566 84.02047729 106.36550903 C82.27462341 106.36963303 82.27462341 106.36963303 80.49349976 106.37384033 C79.21028839 106.36664978 77.92707703 106.35945923 76.60498047 106.35205078 C75.24509693 106.35148686 73.88521278 106.35180285 72.52532959 106.35293579 C68.82716584 106.35351106 65.12913107 106.34172877 61.43099737 106.32778788 C57.56859835 106.31530937 53.70619658 106.3141123 49.84378052 106.31173706 C42.52687967 106.3055138 35.21003839 106.28909158 27.8931638 106.26903808 C19.56438462 106.24670535 11.23560264 106.23569227 2.90680099 106.22564721 C-14.22883383 106.20472605 -31.36441062 106.16953369 -48.5 106.125 C-48.54242974 107.55573077 -48.57260378 108.98682823 -48.59765625 110.41796875 C-48.61578369 111.21485107 -48.63391113 112.0117334 -48.65258789 112.83276367 C-48.43972184 116.0305227 -46.99386492 118.33212211 -45.5 121.125 C-45.8125 123.5 -45.8125 123.5 -46.5 125.125 C-45.84 125.125 -45.18 125.125 -44.5 125.125 C-43.96375 126.300625 -43.4275 127.47625 -42.875 128.6875 C-40.98982389 132.4847833 -38.72332887 135.46691334 -35.8671875 138.58203125 C-34.5 140.125 -34.5 140.125 -32.5 143.125 C-26.33015279 147.92519233 -19.19396685 152.4095681 -11.5 154.125 C-11.5 154.785 -11.5 155.445 -11.5 156.125 C-10.89671875 156.11339844 -10.2934375 156.10179687 -9.671875 156.08984375 C-8.87265625 156.08082031 -8.0734375 156.07179688 -7.25 156.0625 C-6.46109375 156.05089844 -5.6721875 156.03929687 -4.859375 156.02734375 C-2.5 156.125 -2.5 156.125 -0.63110352 156.62109375 C11.42950772 159.47286389 24.00910605 156.50523712 34.37109375 150.328125 C39.17893098 146.94283137 43.48454118 143.72072101 46.6875 138.6875 C47.1825 137.91277344 47.6775 137.13804687 48.1875 136.33984375 C49.26556235 134.52061353 50.24179212 132.64141577 51.1875 130.75 C53.15122922 126.82254157 53.15122922 126.82254157 55.5 125.125 C58.01727719 124.86346714 60.28103966 124.7752078 62.79296875 124.83203125 C63.49899734 124.83627609 64.20502594 124.84052094 64.93244934 124.84489441 C67.18452303 124.86166966 69.43569742 124.89931757 71.6875 124.9375 C73.21548185 124.95254843 74.74347776 124.96623656 76.27148438 124.97851562 C80.01466872 125.01156911 83.75718196 125.06334168 87.5 125.125 C87.5 131.16376224 87.24440284 136.18238825 83.5 141.125 C82.84 141.125 82.18 141.125 81.5 141.125 C81.83 142.115 82.16 143.105 82.5 144.125 C76.54294578 157.28386604 63.73885117 168.46187891 51.375 175.375 C50.76785156 175.725625 50.16070313 176.07625 49.53515625 176.4375 C46.54689526 178.13019686 43.85745915 179.42725643 40.5 180.125 C38.7463184 180.80305391 36.99658197 181.49136233 35.25 182.1875 C30.30308209 184.02530306 26.72142051 184.30199731 21.5 184.125 C20.21416016 184.60839844 20.21416016 184.60839844 18.90234375 185.1015625 C14.33983669 186.47398139 10.11080245 186.41636072 5.375 186.375 C4.48167969 186.38273438 3.58835937 186.39046875 2.66796875 186.3984375 C1.80558594 186.39585937 0.94320312 186.39328125 0.0546875 186.390625 C-0.72406738 186.38836914 -1.50282227 186.38611328 -2.30517578 186.38378906 C-4.75347581 186.09511297 -6.31488779 185.22495862 -8.5 184.125 C-10.43368469 184.15777432 -12.36737694 184.19182237 -14.30078125 184.23828125 C-18.29236409 184.03267574 -21.8028779 182.55315252 -25.5 181.125 C-26.27085937 180.85816406 -27.04171875 180.59132813 -27.8359375 180.31640625 C-36.43370843 177.18614984 -43.92265687 172.17656209 -51.5 167.125 C-51.5 166.465 -51.5 165.805 -51.5 165.125 C-52.056875 164.90328125 -52.61375 164.6815625 -53.1875 164.453125 C-56.22896833 162.70633576 -58.16178197 160.48410914 -60.5 157.875 C-61.7684375 156.47507812 -61.7684375 156.47507812 -63.0625 155.046875 C-66.40354268 151.04190718 -69.33832818 146.880678 -71.5 142.125 C-72.056875 140.92875 -72.61375 139.7325 -73.1875 138.5 C-73.620625 137.38625 -74.05375 136.2725 -74.5 135.125 C-74.005 134.135 -74.005 134.135 -73.5 133.125 C-74.49 132.795 -75.48 132.465 -76.5 132.125 C-77.44921875 130.015625 -77.44921875 130.015625 -78.1875 127.375 C-78.43886719 126.51390625 -78.69023438 125.6528125 -78.94921875 124.765625 C-79.5 122.125 -79.5 122.125 -79.45703125 119.421875 C-79.23808057 116.92441462 -79.23808057 116.92441462 -81.5 115.125 C-81.87890625 112.15625 -81.87890625 112.15625 -82.0625 108.625 C-82.16407271 104.21566238 -82.16407271 104.21566238 -83.5 100.125 C-83.59715342 97.79331782 -83.62978217 95.45870043 -83.625 93.125 C-83.62757813 91.866875 -83.63015625 90.60875 -83.6328125 89.3125 C-83.5 86.125 -83.5 86.125 -82.5 84.125 C-82.520625 83.031875 -82.54125 81.93875 -82.5625 80.8125 C-82.50207604 77.2474864 -81.91907058 75.31790881 -80.5 72.125 C-80.5 71.135 -80.5 70.145 -80.5 69.125 C-80.19056019 67.78591976 -79.85489572 66.45275672 -79.5 65.125 C-79.18521782 63.64631732 -78.87278688 62.1671325 -78.5625 60.6875 C-77.03859339 53.80169975 -74.12689486 48.12332612 -70.5 42.125 C-69.9225 41.031875 -69.345 39.93875 -68.75 38.8125 C-62.04120795 27.01427949 -49.71884576 16.03353277 -37.5 10.125 C-36.89800781 9.80660156 -36.29601562 9.48820313 -35.67578125 9.16015625 C-27.77671462 5.03674411 -20.36643545 2.84432281 -11.5 2.125 C-7.47106295 1.70233655 -3.70744499 0.18537225 0 0 Z M-12.5 31.125 C-13.49 31.125 -14.48 31.125 -15.5 31.125 C-15.5 31.785 -15.5 32.445 -15.5 33.125 C-17.81 33.455 -20.12 33.785 -22.5 34.125 C-22.83 35.115 -23.16 36.105 -23.5 37.125 C-24.23992188 37.41503906 -24.97984375 37.70507812 -25.7421875 38.00390625 C-29.20700189 39.41240728 -31.04301215 41.37391632 -33.625 44.0625 C-34.47320313 44.93777344 -35.32140625 45.81304687 -36.1953125 46.71484375 C-36.95585938 47.51019531 -37.71640625 48.30554688 -38.5 49.125 C-39.07492187 49.66640625 -39.64984375 50.2078125 -40.2421875 50.765625 C-42.1951054 52.87623192 -42.64731551 55.40706818 -43.5 58.125 C-43.995 59.07375 -44.49 60.0225 -45 61 C-46.77095537 64.68949035 -47.60618226 68.13719777 -48.5 72.125 C-48.83 72.125 -49.16 72.125 -49.5 72.125 C-49.542721 73.79111905 -49.54063832 75.45882885 -49.5 77.125 C-48.52504214 78.31882943 -48.52504214 78.31882943 -46.72151089 78.24804783 C-45.94075223 78.24712604 -45.15999357 78.24620424 -44.35557556 78.24525452 C-43.46230057 78.24662918 -42.56902557 78.24800385 -41.64868164 78.24942017 C-40.66109863 78.24582489 -39.67351563 78.24222961 -38.65600586 78.23852539 C-37.1049691 78.23874443 -37.1049691 78.23874443 -35.52259827 78.2389679 C-32.08665914 78.23826827 -28.65077347 78.23047358 -25.21484375 78.22265625 C-22.83972707 78.22079225 -20.46461 78.21936826 -18.0894928 78.21836853 C-11.82423856 78.21454197 -5.55900733 78.2047105 0.70623779 78.19366455 C7.0938689 78.1834534 13.48150371 78.17887155 19.86914062 78.17382812 C32.41277026 78.16308836 44.95638391 78.14620127 57.5 78.125 C57.52683187 76.37427074 57.5459193 74.62342173 57.56176758 72.87255859 C57.57896599 71.41008194 57.57896599 71.41008194 57.59651184 69.9180603 C57.46379078 66.07710244 56.57807632 63.33514366 55.1875 59.75 C54.54361328 58.03683594 54.54361328 58.03683594 53.88671875 56.2890625 C51.51273647 50.87237053 48.78598797 47.19668857 44.5 43.125 C44.025625 42.609375 43.55125 42.09375 43.0625 41.5625 C38.38521863 37.25940114 33.21646112 35.03245394 27.3125 32.9375 C26.60158203 32.67775391 25.89066406 32.41800781 25.15820312 32.15039062 C17.70539581 29.43709201 11.9567366 28.9419275 4.0625 28.9375 C2.34450195 28.91913086 2.34450195 28.91913086 0.59179688 28.90039062 C-0.50970703 28.89845703 -1.61121094 28.89652344 -2.74609375 28.89453125 C-3.75341553 28.89042236 -4.7607373 28.88631348 -5.79858398 28.88208008 C-8.56586338 29.13092264 -10.09022193 29.82564458 -12.5 31.125 Z M56.5 62.125 C57.5 64.125 57.5 64.125 57.5 64.125 Z M-49.5 79.125 C-49.5 79.455 -49.5 79.785 -49.5 80.125 C-13.53 80.125 22.44 80.125 59.5 80.125 C59.5 79.795 59.5 79.465 59.5 79.125 C23.53 79.125 -12.44 79.125 -49.5 79.125 Z " fill="#FEFEFE" transform="translate(777.5,139.875)"/>
<path d="M0 0 C0.74572266 0.00386719 1.49144531 0.00773437 2.25976562 0.01171875 C3.00162109 0.00785156 3.74347656 0.00398438 4.5078125 0 C10.06899561 0.01008374 10.06899561 0.01008374 12.32226562 1.13671875 C13.33289062 1.11609375 14.34351563 1.09546875 15.38476562 1.07421875 C26.49239203 1.25053028 36.93603675 5.46132455 46.32226562 11.13671875 C47.52915501 11.82675043 48.73755697 12.51414164 49.94726562 13.19921875 C52.11336479 14.44272012 54.24409092 15.75126895 56.32226562 17.13671875 C56.32226562 17.79671875 56.32226562 18.45671875 56.32226562 19.13671875 C56.88816406 19.36875 57.4540625 19.60078125 58.03710938 19.83984375 C60.89831901 21.46364136 62.69195588 23.43789569 64.88476562 25.88671875 C65.64917969 26.7271875 66.41359375 27.56765625 67.20117188 28.43359375 C70.61890312 32.78915549 72.2502346 36.7765636 73.32226562 42.13671875 C73.98226563 42.46671875 74.64226562 42.79671875 75.32226562 43.13671875 C75.94726562 46.19921875 75.94726562 46.19921875 76.32226562 49.13671875 C76.65226562 49.13671875 76.98226563 49.13671875 77.32226562 49.13671875 C77.51777901 50.73992849 77.70338545 52.34434861 77.88476562 53.94921875 C77.98917969 54.84253906 78.09359375 55.73585937 78.20117188 56.65625 C78.32226562 59.13671875 78.32226562 59.13671875 77.32226562 62.13671875 C66.43226563 62.13671875 55.54226563 62.13671875 44.32226562 62.13671875 C43.33226562 60.15671875 43.33226562 60.15671875 42.32226562 58.13671875 C42.81726562 57.14671875 42.81726562 57.14671875 43.32226562 56.13671875 C42.66226562 55.80671875 42.00226563 55.47671875 41.32226562 55.13671875 C40.03320312 53.140625 40.03320312 53.140625 38.69726562 50.69921875 C38.25125 49.89613281 37.80523438 49.09304687 37.34570312 48.265625 C36.32226562 46.13671875 36.32226562 46.13671875 36.32226562 44.13671875 C35.66226562 44.13671875 35.00226563 44.13671875 34.32226562 44.13671875 C32.65559896 42.47005208 30.98893229 40.80338542 29.32226562 39.13671875 C23.71499359 35.02471926 17.5287084 30.50085615 10.32226562 31.13671875 C9.66226562 30.80671875 9.00226563 30.47671875 8.32226562 30.13671875 C4.95418126 29.84273113 1.57668217 29.85865574 -1.80273438 29.82421875 C-2.72828125 29.79521484 -3.65382813 29.76621094 -4.60742188 29.73632812 C-11.02402649 29.67741862 -15.2154613 30.8458547 -20.67773438 34.13671875 C-21.34305176 34.46889404 -22.00836914 34.80106934 -22.69384766 35.14331055 C-29.94034866 38.77191165 -34.96380964 43.91206273 -38.67773438 51.13671875 C-38.8500929 53.76205395 -38.8500929 53.76205395 -38.67773438 56.13671875 C-39.17273437 57.12671875 -39.17273437 57.12671875 -39.67773438 58.13671875 C-40.79612428 68.23418187 -38.31576161 74.67967789 -32.80273438 82.94921875 C-23.86961356 92.14507842 -10.74508079 95.78199645 1.32226562 99.13671875 C2.80726562 99.63171875 2.80726562 99.63171875 4.32226562 100.13671875 C5.47726562 100.46671875 6.63226562 100.79671875 7.82226562 101.13671875 C10.00195556 101.7594873 12.17168431 102.41985831 14.32226562 103.13671875 C15.65333184 103.47899292 16.98626642 103.81423618 18.32226562 104.13671875 C18.32226562 104.79671875 18.32226562 105.45671875 18.32226562 106.13671875 C18.87914062 105.93046875 19.43601562 105.72421875 20.00976562 105.51171875 C23.05028418 105.01866169 24.47590409 105.95007772 27.32226562 107.13671875 C30.44472348 108.17525303 33.57115537 109.19629553 36.70703125 110.19335938 C40.78918961 111.52368712 44.53392854 113.12186911 48.32226562 115.13671875 C49.10988281 115.55050781 49.8975 115.96429688 50.70898438 116.390625 C58.59358847 120.87507724 67.40827195 126.71464307 71.32226562 135.13671875 C71.81597656 135.62914062 72.3096875 136.1215625 72.81835938 136.62890625 C78.39717417 142.22221147 80.25578335 152.21426438 80.38476562 159.82421875 C80.35382813 161.46390625 80.35382813 161.46390625 80.32226562 163.13671875 C80.50789063 164.16796875 80.69351562 165.19921875 80.88476562 166.26171875 C81.34605 169.29301609 80.97337568 171.17055074 80.32226562 174.13671875 C80.38414062 175.18859375 80.44601562 176.24046875 80.50976562 177.32421875 C80.25576719 182.48885361 78.39044091 186.45291002 76.32226562 191.13671875 C75.88914062 192.29171875 75.45601562 193.44671875 75.00976562 194.63671875 C69.18776884 206.71197134 69.18776884 206.71197134 64.22460938 209.1796875 C61.76078265 210.41918965 61.50467405 211.69066773 60.32226562 214.13671875 C47.21123187 227.03881173 30.30073286 232.13671875 12.32226562 232.13671875 C11.49726562 232.30171875 10.67226562 232.46671875 9.82226562 232.63671875 C3.97689848 233.80579218 -1.97780211 233.00292446 -7.85742188 232.41015625 C-9.63070728 232.23823107 -11.40705935 232.09354998 -13.18554688 231.98828125 C-27.19587648 231.04224613 -44.62831416 224.21734835 -54.67773438 214.13671875 C-54.67773438 213.47671875 -54.67773438 212.81671875 -54.67773438 212.13671875 C-55.60585937 211.70359375 -55.60585937 211.70359375 -56.55273438 211.26171875 C-58.67773438 210.13671875 -58.67773438 210.13671875 -60.67773438 208.13671875 C-60.67773438 207.14671875 -60.67773438 206.15671875 -60.67773438 205.13671875 C-61.57298828 204.79640625 -61.57298828 204.79640625 -62.48632812 204.44921875 C-68.71333919 200.71967202 -71.29404575 191.09699633 -73.13476562 184.42578125 C-74.38555605 179.15266477 -74.94428351 174.55655119 -74.67773438 169.13671875 C-72.67773438 167.13671875 -72.67773438 167.13671875 -69.60498047 166.90966797 C-68.31672363 166.9201416 -67.0284668 166.93061523 -65.70117188 166.94140625 C-65.01592438 166.94423615 -64.33067688 166.94706604 -63.62466431 166.94998169 C-61.4338441 166.96118594 -59.24343122 166.98629016 -57.05273438 167.01171875 C-55.56836528 167.02174827 -54.08398977 167.03087417 -52.59960938 167.0390625 C-48.95885177 167.06112581 -45.31833281 167.09565699 -41.67773438 167.13671875 C-41.67773438 167.79671875 -41.67773438 168.45671875 -41.67773438 169.13671875 C-41.01773437 169.13671875 -40.35773438 169.13671875 -39.67773438 169.13671875 C-39.48242188 171.08984375 -39.28710938 173.04296875 -39.09179688 174.99609375 C-38.63316867 177.36711505 -37.84587496 179.02679008 -36.67773438 181.13671875 C-36.26136719 181.91789063 -35.845 182.6990625 -35.41601562 183.50390625 C-30.02755637 192.98168938 -23.76470016 197.96916067 -13.67773438 202.13671875 C-13.01773437 202.13671875 -12.35773438 202.13671875 -11.67773438 202.13671875 C-11.67773438 202.79671875 -11.67773438 203.45671875 -11.67773438 204.13671875 C-10.70191406 204.11351562 -9.72609375 204.0903125 -8.72070312 204.06640625 C-7.44839844 204.04835938 -6.17609375 204.0303125 -4.86523438 204.01171875 C-3.60066406 203.98851562 -2.33609375 203.9653125 -1.03320312 203.94140625 C2.32226562 204.13671875 2.32226562 204.13671875 5.32226562 206.13671875 C5.32226562 205.47671875 5.32226562 204.81671875 5.32226562 204.13671875 C6.2375 204.15992188 7.15273437 204.183125 8.09570312 204.20703125 C9.28421875 204.22507812 10.47273438 204.243125 11.69726562 204.26171875 C12.880625 204.28492188 14.06398438 204.308125 15.28320312 204.33203125 C18.4338038 204.46538104 18.4338038 204.46538104 20.32226562 202.13671875 C21.68036149 201.6492694 23.05922215 201.21838441 24.44726562 200.82421875 C33.38778431 197.99329522 38.7427077 193.59295844 43.15039062 185.42578125 C46.01342836 179.8333142 46.66127095 174.72545554 47.07617188 168.52734375 C47.32226562 166.13671875 47.32226562 166.13671875 48.32226562 164.13671875 C47.66226562 164.13671875 47.00226563 164.13671875 46.32226562 164.13671875 C46.32226562 162.81671875 46.32226562 161.49671875 46.32226562 160.13671875 C45.85944517 156.34159101 45.22647454 154.6106745 42.32226562 152.13671875 C40.95030988 150.84316048 39.61043906 149.51373173 38.32226562 148.13671875 C38.32226562 147.47671875 38.32226562 146.81671875 38.32226562 146.13671875 C37.74605469 145.85570312 37.16984375 145.5746875 36.57617188 145.28515625 C34.41704847 144.18501365 32.3491269 142.98799807 30.25976562 141.76171875 C20.90399736 136.56576276 10.57792454 133.97491273 0.32226562 131.13671875 C-2.01106771 130.47005208 -4.34440104 129.80338542 -6.67773438 129.13671875 C-7.86753906 128.80671875 -9.05734375 128.47671875 -10.28320312 128.13671875 C-11.46527344 127.80671875 -12.64734375 127.47671875 -13.86523438 127.13671875 C-15.05503906 126.80671875 -16.24484375 126.47671875 -17.47070312 126.13671875 C-20.08591919 125.32125552 -22.26216926 124.38241376 -24.67773438 123.13671875 C-26.00804687 122.95109375 -26.00804687 122.95109375 -27.36523438 122.76171875 C-34.58003751 121.40043514 -41.17916425 117.44508173 -47.67773438 114.13671875 C-47.67773438 113.47671875 -47.67773438 112.81671875 -47.67773438 112.13671875 C-48.82242187 111.73453125 -48.82242187 111.73453125 -49.99023438 111.32421875 C-52.6472657 110.15018165 -53.79096432 109.26958924 -55.67773438 107.13671875 C-56.29648438 106.51796875 -56.91523437 105.89921875 -57.55273438 105.26171875 C-58.25398438 104.56046875 -58.95523437 103.85921875 -59.67773438 103.13671875 C-60.46148438 102.45609375 -61.24523438 101.77546875 -62.05273438 101.07421875 C-69.75752018 92.45219654 -72.70553165 82.41938717 -73.67773438 71.13671875 C-73.01773438 71.13671875 -72.35773437 71.13671875 -71.67773438 71.13671875 C-72.00773438 70.47671875 -72.33773437 69.81671875 -72.67773438 69.13671875 C-72.72289871 67.69992843 -72.71637587 66.26119929 -72.67773438 64.82421875 C-72.63547756 62.17471622 -72.68603651 60.10184976 -73.30273438 57.51171875 C-73.85617746 54.00657919 -72.79405556 51.48568231 -71.67773438 48.13671875 C-71.48179687 47.44449219 -71.28585937 46.75226563 -71.08398438 46.0390625 C-67.1637076 32.80812839 -57.51487454 19.98435207 -45.56835938 12.8828125 C-44.24616619 12.22940308 -42.91140954 11.60070551 -41.56445312 11 C-39.37990107 10.04890433 -39.37990107 10.04890433 -36.36523438 8.07421875 C-29.51198093 4.09995762 -21.45205361 2.91415067 -13.67773438 2.13671875 C-8.6744581 1.50138208 -4.95835139 0.009007 0 0 Z M13.32226562 2.13671875 C13.32226562 2.46671875 13.32226562 2.79671875 13.32226562 3.13671875 C15.30226563 3.13671875 17.28226563 3.13671875 19.32226562 3.13671875 C19.32226562 2.80671875 19.32226562 2.47671875 19.32226562 2.13671875 C17.34226562 2.13671875 15.36226562 2.13671875 13.32226562 2.13671875 Z M-69.67773438 43.13671875 C-68.67773438 45.13671875 -68.67773438 45.13671875 -68.67773438 45.13671875 Z M-39.67773438 73.13671875 C-38.67773438 75.13671875 -38.67773438 75.13671875 -38.67773438 75.13671875 Z M-69.67773438 85.13671875 C-68.67773438 87.13671875 -68.67773438 87.13671875 -68.67773438 87.13671875 Z " fill="#FEFEFE" transform="translate(1092.677734375,91.86328125)"/>
<path d="M0 0 C1.51639824 -0.00845947 1.51639824 -0.00845947 3.06343079 -0.01708984 C4.72567184 -0.01101715 4.72567184 -0.01101715 6.42149353 -0.00482178 C7.58914749 -0.00832642 8.75680145 -0.01183105 9.95983887 -0.01544189 C13.8298482 -0.02426391 17.69967561 -0.01840866 21.56968689 -0.01165771 C24.25103993 -0.01300414 26.93238737 -0.01494118 29.61373901 -0.01745605 C35.23685183 -0.02109526 40.85991212 -0.0162973 46.48301697 -0.0067749 C52.98881296 0.00411488 59.49448366 0.00058014 66.00027663 -0.01042771 C71.58249869 -0.01949561 77.16468299 -0.02078848 82.74691004 -0.01555037 C86.08254974 -0.0124286 89.41811742 -0.01280965 92.75375557 -0.01862335 C96.46991181 -0.02367877 100.18582428 -0.01599229 103.90196228 -0.00482178 C105.56723969 -0.01089447 105.56723969 -0.01089447 107.26615906 -0.01708984 C108.27427139 -0.0114502 109.28238373 -0.00581055 110.32104492 0 C111.20022614 0.00075405 112.07940737 0.0015081 112.98523045 0.002285 C115.09703064 0.25396729 115.09703064 0.25396729 117.09703064 2.25396729 C117.3558197 4.65240479 117.3558197 4.65240479 117.36265564 7.62896729 C117.36652283 9.22998291 117.36652283 9.22998291 117.37046814 10.86334229 C117.36273376 11.98224854 117.35499939 13.10115479 117.34703064 14.25396729 C117.3586322 15.93232666 117.3586322 15.93232666 117.37046814 17.64459229 C117.36789001 18.71193604 117.36531189 19.77927979 117.36265564 20.87896729 C117.36039978 21.86123291 117.35814392 22.84349854 117.3558197 23.85552979 C117.09703064 26.25396729 117.09703064 26.25396729 115.09703064 28.25396729 C112.26529969 28.44214128 109.53212312 28.50570108 106.70005798 28.48101807 C105.39751823 28.48145615 105.39751823 28.48145615 104.06866455 28.48190308 C101.18999846 28.48050646 98.31158918 28.46492971 95.43296814 28.44927979 C93.44042604 28.44555083 91.44788211 28.44270331 89.45533752 28.44070435 C84.20440125 28.4330586 78.95357516 28.41340205 73.7026825 28.39129639 C67.40599342 28.3672664 61.10926756 28.35806146 54.81254578 28.34638977 C45.2406307 28.32697819 35.66895752 28.28866215 26.09703064 28.25396729 C26.09703064 52.01396729 26.09703064 75.77396729 26.09703064 100.25396729 C52.49703064 100.25396729 78.89703064 100.25396729 106.09703064 100.25396729 C106.09703064 108.83396729 106.09703064 117.41396729 106.09703064 126.25396729 C104.38873654 127.96226139 102.23698687 127.37368655 99.95916748 127.37838745 C99.22405441 127.37479218 98.48894135 127.3711969 97.73155212 127.36749268 C96.96087402 127.3676387 96.19019592 127.36778473 95.39616394 127.36793518 C92.83678925 127.36723588 90.27748644 127.35944274 87.71812439 127.35162354 C85.94835449 127.34975941 84.17858408 127.34833548 82.40881348 127.34733582 C77.74151698 127.34351017 73.07425141 127.33367949 68.40696716 127.32263184 C62.81195464 127.31062435 57.2169318 127.3060157 51.6219101 127.30017853 C43.11359541 127.29046775 34.60534862 127.27131153 26.09703064 127.25396729 C26.09703064 151.67396729 26.09703064 176.09396729 26.09703064 201.25396729 C32.58230408 201.24236572 39.06757751 201.23076416 45.74937439 201.21881104 C49.84638059 201.21370435 53.9433829 201.20889059 58.04039001 201.20513916 C64.5500825 201.19915043 71.05976098 201.19204932 77.56944275 201.17852783 C82.81488766 201.16769994 88.06031756 201.16169066 93.30577278 201.15909004 C95.3117401 201.15723561 97.31770656 201.15361467 99.32366753 201.14823723 C102.12305888 201.1410281 104.92238743 201.13997629 107.7217865 201.14044189 C108.97874329 201.13504898 108.97874329 201.13504898 110.26109314 201.12954712 C115.98297848 201.13991512 115.98297848 201.13991512 117.09703064 202.25396729 C117.34959941 206.22672544 117.28225515 210.21162904 117.28453064 214.19146729 C117.29677673 215.31488525 117.30902283 216.43830322 117.32164001 217.59576416 C117.32357361 218.66761963 117.3255072 219.7394751 117.32749939 220.84381104 C117.33160828 221.83244141 117.33571716 222.82107178 117.33995056 223.83966064 C117.09703064 226.25396729 117.09703064 226.25396729 115.09703064 228.25396729 C112.98523045 228.50564957 112.98523045 228.50564957 110.32104492 228.50793457 C108.80887642 228.51639404 108.80887642 228.51639404 107.26615906 228.52502441 C106.15597412 228.52097595 105.04578918 228.51692749 103.90196228 228.51275635 C102.15310982 228.51801331 102.15310982 228.51801331 100.368927 228.52337646 C96.49828716 228.53220999 92.62782873 228.52633844 88.75718689 228.51959229 C86.07680024 228.52093856 83.39641919 228.52287548 80.71603394 228.52539062 C75.09114095 228.52903216 69.46630043 228.52422682 63.84141541 228.51470947 C57.33622817 228.50382981 50.83116634 228.50734614 44.32598215 228.51836228 C38.74461387 228.52743617 33.16328335 228.52871979 27.58191007 228.52348495 C24.24678256 228.52036511 20.91172698 228.52074005 17.57660103 228.52655792 C13.85814485 228.53161991 10.13993156 228.523917 6.42149353 228.51275635 C5.31333282 228.51680481 4.20517212 228.52085327 3.06343079 228.52502441 C2.05249863 228.51938477 1.04156647 228.51374512 0 228.50793457 C-0.87955825 228.50718052 -1.7591165 228.50642647 -2.66532803 228.50564957 C-4.90296936 228.25396729 -4.90296936 228.25396729 -7.90296936 226.25396729 C-8.20370056 223.27567834 -8.30700248 220.5043836 -8.28392029 217.52301025 C-8.28860026 216.60799681 -8.29328023 215.69298336 -8.29810202 214.75024223 C-8.31012653 211.66540162 -8.30056576 208.58099917 -8.29115295 205.49615479 C-8.29521534 203.29223368 -8.30055534 201.0883146 -8.30708313 198.88439941 C-8.32080208 192.88452446 -8.31543921 186.88480362 -8.30594587 180.88492584 C-8.29837294 174.61844962 -8.30538828 168.35198697 -8.31010437 162.08551025 C-8.31591928 150.88526412 -8.30657148 139.68508177 -8.29132636 128.48485065 C-8.27792245 118.32256818 -8.28025032 108.16038852 -8.29408264 97.99810791 C-8.31012472 86.2067882 -8.3161199 74.41551831 -8.30724585 62.62418556 C-8.30255849 56.37882645 -8.30197358 50.13353821 -8.31185532 43.88818359 C-8.3204941 38.01789011 -8.31455974 32.14779156 -8.29717255 26.27751923 C-8.29319114 24.11753412 -8.29436978 21.95753273 -8.30096054 19.79755402 C-8.30910099 16.85978604 -8.29894573 13.92265141 -8.28392029 10.98492432 C-8.29061245 10.12054182 -8.29730462 9.25615932 -8.30419958 8.36558342 C-8.28049278 5.99276733 -8.28049278 5.99276733 -7.90296936 2.25396729 C-4.65023125 0.08547521 -3.75752768 0.00322135 0 0 Z " fill="#FEFEFE" transform="translate(330.90296936035156,94.74603271484375)"/>
<path d="M0 0 C1.30066406 -0.00128906 2.60132813 -0.00257812 3.94140625 -0.00390625 C4.96258545 -0.00076416 4.96258545 -0.00076416 6.00439453 0.00244141 C8.08503515 0.0077901 10.16545989 0.0024957 12.24609375 -0.00390625 C14.19708984 -0.00197266 14.19708984 -0.00197266 16.1875 0 C17.39083984 0.00112793 18.59417969 0.00225586 19.83398438 0.00341797 C22.59375 0.1328125 22.59375 0.1328125 23.59375 1.1328125 C23.70221611 2.86602712 23.74061827 4.60365706 23.75196838 6.34022522 C23.7617572 7.46909653 23.77154602 8.59796783 23.78163147 9.76104736 C23.79026466 11.63515289 23.79026466 11.63515289 23.79907227 13.54711914 C23.80897186 14.85424362 23.81887146 16.1613681 23.82907104 17.50810242 C23.85618408 21.10295011 23.87715887 24.69781101 23.89707303 28.29270482 C23.91889326 32.0457014 23.94630127 35.79865696 23.97312927 39.55162048 C24.02310992 46.663091 24.06802874 53.77458423 24.11115164 60.88609928 C24.1604782 68.9803123 24.21541326 77.07448417 24.27083123 85.16865742 C24.38473371 101.82333788 24.49155465 118.47805601 24.59375 135.1328125 C27.97689582 133.68646537 27.97689582 133.68646537 29.84375 130.5078125 C30.09125 129.7240625 30.33875 128.9403125 30.59375 128.1328125 C31.25375 128.1328125 31.91375 128.1328125 32.59375 128.1328125 C32.8103125 127.60945313 33.026875 127.08609375 33.25 126.546875 C35.12688903 123.17502203 37.5778613 120.42026247 40.09375 117.5078125 C40.59261719 116.92257813 41.09148437 116.33734375 41.60546875 115.734375 C43.5444893 113.46785232 45.48388044 111.24268206 47.59375 109.1328125 C48.58375 107.6478125 48.58375 107.6478125 49.59375 106.1328125 C50.25375 106.1328125 50.91375 106.1328125 51.59375 106.1328125 C51.81417969 105.60558594 52.03460937 105.07835937 52.26171875 104.53515625 C54.08104611 101.25396467 56.47027149 98.52596482 58.90625 95.6953125 C59.37998047 95.13521484 59.85371094 94.57511719 60.34179688 93.99804688 C62.53868465 91.42248898 64.76239212 88.96442706 67.16015625 86.5703125 C69.70065468 84.02573622 71.95706037 81.36439298 74.21875 78.5703125 C74.97414063 77.64089844 75.72953125 76.71148437 76.5078125 75.75390625 C77.79667812 74.13437661 79.05012473 72.48501993 80.2421875 70.79296875 C80.91121094 69.97119141 80.91121094 69.97119141 81.59375 69.1328125 C82.25375 69.1328125 82.91375 69.1328125 83.59375 69.1328125 C83.965 68.2665625 83.965 68.2665625 84.34375 67.3828125 C85.89416381 64.59206764 87.01853467 63.078598 89.59375 61.1328125 C92.64354478 60.57459201 95.64298982 60.66748115 98.734375 60.7421875 C99.61655701 60.74784729 100.49873901 60.75350708 101.40765381 60.75933838 C104.22024213 60.78169659 107.03154795 60.83189118 109.84375 60.8828125 C111.75258574 60.90287825 113.66144149 60.92112889 115.5703125 60.9375 C120.24528445 60.9815595 124.91929992 61.05058266 129.59375 61.1328125 C129.59375 61.7928125 129.59375 62.4528125 129.59375 63.1328125 C130.25375 63.1328125 130.91375 63.1328125 131.59375 63.1328125 C130.18515452 67.67985754 127.6600827 70.4289791 124.28125 73.6328125 C122.86392578 75.00953125 122.86392578 75.00953125 121.41796875 76.4140625 C120.48597656 77.31125 119.55398438 78.2084375 118.59375 79.1328125 C116.92352842 80.79591666 115.25608205 82.46182247 113.59375 84.1328125 C111.92708333 85.79947917 110.26041667 87.46614583 108.59375 89.1328125 C107.64995347 90.23160201 106.71313061 91.33639916 105.78125 92.4453125 C103.18576432 95.49327995 100.42502986 98.30153264 97.59375 101.1328125 C96.64819532 102.23008942 95.71125287 103.3348239 94.78125 104.4453125 C91.79797414 107.98795259 88.55400949 111.21134187 85.23046875 114.43359375 C83.51105963 116.04952534 83.51105963 116.04952534 82.59375 118.1328125 C81.93375 118.1328125 81.27375 118.1328125 80.59375 118.1328125 C80.09875 119.6178125 80.09875 119.6178125 79.59375 121.1328125 C78.93375 121.1328125 78.27375 121.1328125 77.59375 121.1328125 C77.09875 122.6178125 77.09875 122.6178125 76.59375 124.1328125 C74.93586215 125.47704589 73.26798683 126.80899733 71.59375 128.1328125 C70.21892293 129.76541964 68.88727333 131.43506312 67.59375 133.1328125 C63.06280537 138.97646071 63.06280537 138.97646071 59.59375 140.1328125 C58.88266701 141.44299691 58.22121983 142.78059069 57.59375 144.1328125 C56.58939028 145.41298085 55.54684739 146.66409372 54.46875 147.8828125 C53.66050781 148.80320313 53.66050781 148.80320313 52.8359375 149.7421875 C52.42601562 150.20109375 52.01609375 150.66 51.59375 151.1328125 C52.19703125 151.78507813 52.8003125 152.43734375 53.421875 153.109375 C60.75247261 161.12573819 60.75247261 161.12573819 63.03125 164.7578125 C63.546875 165.5415625 64.0625 166.3253125 64.59375 167.1328125 C65.25375 167.1328125 65.91375 167.1328125 66.59375 167.1328125 C68.1796875 168.7421875 68.1796875 168.7421875 69.96875 170.8828125 C71.93132727 173.20184952 73.8525795 175.38500534 76.03125 177.5078125 C77.59375 179.1328125 77.59375 179.1328125 77.59375 181.1328125 C78.25375 181.1328125 78.91375 181.1328125 79.59375 181.1328125 C79.59375 181.7928125 79.59375 182.4528125 79.59375 183.1328125 C80.58375 183.4628125 81.57375 183.7928125 82.59375 184.1328125 C82.59375 184.7928125 82.59375 185.4528125 82.59375 186.1328125 C83.58375 186.4628125 84.57375 186.7928125 85.59375 187.1328125 C85.59375 187.7928125 85.59375 188.4528125 85.59375 189.1328125 C86.25375 189.1328125 86.91375 189.1328125 87.59375 189.1328125 C87.84125 189.720625 88.08875 190.3084375 88.34375 190.9140625 C89.77754977 193.4590571 91.33014406 194.80195475 93.59375 196.6328125 C97.37688253 199.69269911 97.37688253 199.69269911 98.65625 202.2890625 C99.50558762 204.49359893 99.50558762 204.49359893 102.59375 205.1328125 C104.34765625 206.875 104.34765625 206.875 106.15625 209.0078125 C106.75566406 209.70648438 107.35507813 210.40515625 107.97265625 211.125 C109.59375 213.1328125 109.59375 213.1328125 111.59375 216.1328125 C112.60852027 217.01876478 113.65167973 217.87310135 114.71875 218.6953125 C115.6675 219.4996875 116.61625 220.3040625 117.59375 221.1328125 C117.59375 221.7928125 117.59375 222.4528125 117.59375 223.1328125 C118.25375 223.1328125 118.91375 223.1328125 119.59375 223.1328125 C120.76795704 224.81025113 121.93903576 226.49001662 123.08984375 228.18359375 C125.13142198 230.82969124 127.53256202 232.80165247 130.140625 234.87109375 C131.59375 236.1328125 131.59375 236.1328125 132.59375 238.1328125 C131.93375 239.1228125 131.27375 240.1128125 130.59375 241.1328125 C127.70763917 241.48701875 125.04203487 241.64895887 122.1484375 241.671875 C121.30459503 241.68423187 120.46075256 241.69658875 119.59133911 241.70932007 C117.80087227 241.72891701 116.01029717 241.74012381 114.21972656 241.74365234 C111.49877519 241.75765795 108.78251758 241.82485057 106.0625 241.89453125 C91.48507178 242.07901407 91.48507178 242.07901407 86.55078125 237.8515625 C84.95629883 236.04492188 84.95629883 236.04492188 83.59375 234.1328125 C83.0363916 233.41722168 82.4790332 232.70163086 81.90478516 231.96435547 C80.90282685 230.65616162 79.92526546 229.32892969 78.97265625 227.984375 C77.47867023 225.88502634 77.47867023 225.88502634 74.84375 223.3828125 C72.76148837 221.30055087 71.88006073 219.70543395 70.59375 217.1328125 C69.60375 216.8028125 68.61375 216.4728125 67.59375 216.1328125 C67.59375 215.4728125 67.59375 214.8128125 67.59375 214.1328125 C66.93375 214.1328125 66.27375 214.1328125 65.59375 214.1328125 C64.17936594 212.55994566 62.83770599 210.92141254 61.53125 209.2578125 C57.70279311 204.46761764 53.7233736 199.88267728 49.59375 195.3515625 C47.96090857 193.54012904 46.38538107 191.70881056 44.84375 189.8203125 C42.64746886 187.11665744 42.64746886 187.11665744 40.21875 184.7578125 C37.41181068 181.95087318 34.82915509 179.00837408 32.2421875 176 C30.63574651 174.12381743 30.63574651 174.12381743 28.8828125 172.515625 C27.59375 171.1328125 27.59375 171.1328125 27.59375 169.1328125 C26.93375 169.1328125 26.27375 169.1328125 25.59375 169.1328125 C25.26375 168.4728125 24.93375 167.8128125 24.59375 167.1328125 C24.58344254 168.03039276 24.57313507 168.92797302 24.56251526 169.85275269 C24.46465898 178.29926284 24.36216162 186.74570103 24.25441074 195.19209099 C24.19917582 199.53477285 24.14575491 203.87746145 24.09643555 208.22021484 C24.04880039 212.40885515 23.99645789 216.59741228 23.94080925 220.78595352 C23.92038185 222.38636334 23.9016694 223.98679597 23.88467598 225.58724594 C23.86064045 227.82371034 23.83058488 230.06001697 23.79907227 232.29638672 C23.78352798 233.57101776 23.7679837 234.8456488 23.75196838 236.15890503 C23.59375 239.1328125 23.59375 239.1328125 22.59375 241.1328125 C18.4820244 241.15746996 14.37032722 241.17565209 10.25854492 241.18774414 C8.85879772 241.1927833 7.4590558 241.19961466 6.05932617 241.20825195 C4.05129223 241.2203357 2.04322043 241.22551057 0.03515625 241.23046875 C-1.77940063 241.23832397 -1.77940063 241.23832397 -3.63061523 241.24633789 C-6.40625 241.1328125 -6.40625 241.1328125 -7.40625 240.1328125 C-7.50651018 237.06320395 -7.54062673 234.01601522 -7.53323364 230.94592285 C-7.53479363 229.96980498 -7.53635362 228.99368711 -7.53796089 227.9879899 C-7.54197543 224.69054599 -7.53877949 221.39314745 -7.53564453 218.09570312 C-7.53699837 215.742528 -7.5387782 213.38935309 -7.54095459 211.03617859 C-7.54553099 204.62521284 -7.54373852 198.21426309 -7.5405755 191.80329704 C-7.53790874 185.78797065 -7.54003434 179.77264456 -7.5415027 173.75731808 C-7.5443576 161.11723148 -7.54107032 148.47715212 -7.53570233 135.83706671 C-7.53123428 124.97975309 -7.53201021 114.12245015 -7.53662109 103.26513672 C-7.54196669 90.67179167 -7.5440829 78.07845297 -7.54100883 65.48510695 C-7.53942463 58.81333654 -7.53925363 52.14157256 -7.54254532 45.46980286 C-7.54542275 39.19905167 -7.5434507 32.92832077 -7.53765106 26.65757179 C-7.53632277 24.34880927 -7.53671873 22.04004505 -7.53891373 19.73128319 C-7.54162255 16.59406603 -7.5382474 13.45691502 -7.53323364 10.31970215 C-7.53546436 9.39336047 -7.53769509 8.46701879 -7.53999341 7.51260614 C-7.51676184 0.08361306 -7.3269896 0.00686783 0 0 Z " fill="#FEFEFE" transform="translate(1775.40625,81.8671875)"/>
<path d="M0 0 C1.32 0 2.64 0 4 0 C9.53855353 6.54556326 11.24033092 14.6436401 12 23 C12.66 23 13.32 23 14 23 C14.13277344 23.91523438 14.26554687 24.83046875 14.40234375 25.7734375 C14.66724609 27.55621094 14.66724609 27.55621094 14.9375 29.375 C15.19853516 31.15003906 15.19853516 31.15003906 15.46484375 32.9609375 C15.83462786 35.90702381 15.83462786 35.90702381 17 38 C17.07033769 39.87379605 17.0843022 41.75001102 17.0625 43.625 C17.05347656 44.62789062 17.04445313 45.63078125 17.03515625 46.6640625 C17.02355469 47.43492187 17.01195312 48.20578125 17 49 C17.66 49 18.32 49 19 49 C20.22024451 52.66073354 20.14322742 56.03282273 20.1328125 59.84375 C20.13376923 60.60925171 20.13472595 61.37475342 20.13571167 62.16345215 C20.13639166 63.78068118 20.13454997 65.39791295 20.13037109 67.01513672 C20.12502027 69.49062226 20.13032216 71.96592636 20.13671875 74.44140625 C20.13605794 76.01302123 20.13477671 77.5846361 20.1328125 79.15625 C20.13483673 79.89693726 20.13686096 80.63762451 20.13894653 81.40075684 C20.12463282 84.53770149 19.99964247 87.0010726 19 90 C18.34 90 17.68 90 17 90 C17.0825 91.134375 17.165 92.26875 17.25 93.4375 C17.240851 98.64328207 15.32771702 102.43496273 13 107 C12.59136719 107.86367188 12.18273437 108.72734375 11.76171875 109.6171875 C9.56318037 114.20484963 7.33653159 118.12531815 4 122 C3.34 123.010625 2.68 124.02125 2 125.0625 C0.17865344 127.73760277 -1.5592208 129.88465802 -4 132 C-4.66 132 -5.32 132 -6 132 C-6 132.66 -6 133.32 -6 134 C-6.66 134 -7.32 134 -8 134 C-8 134.66 -8 135.32 -8 136 C-8.66 136 -9.32 136 -10 136 C-10.66 137.32 -11.32 138.64 -12 140 C-12.66 140 -13.32 140 -14 140 C-14 140.66 -14 141.32 -14 142 C-15.64453125 143.5078125 -15.64453125 143.5078125 -17.8125 145.125 C-18.52019531 145.66382813 -19.22789062 146.20265625 -19.95703125 146.7578125 C-22 148 -22 148 -25 148 C-25.12375 148.61875 -25.2475 149.2375 -25.375 149.875 C-26 152 -26 152 -28 154 C-28.99 154 -29.98 154 -31 154 C-31.2475 154.5775 -31.495 155.155 -31.75 155.75 C-33.18299988 158.32939979 -34.78424676 160.06121592 -37 162 C-37.66 162 -38.32 162 -39 162 C-39.226875 162.556875 -39.45375 163.11375 -39.6875 163.6875 C-41.37367031 166.65837149 -43.55387116 168.60822958 -46 171 C-47.83670981 173.12567493 -49.65038174 175.26797454 -51.44921875 177.42578125 C-51.96097656 177.94527344 -52.47273438 178.46476563 -53 179 C-53.66 179 -54.32 179 -55 179 C-55.28875 179.7425 -55.5775 180.485 -55.875 181.25 C-58.4011976 187.4251497 -58.4011976 187.4251497 -60.5625 189.5 C-62.15375139 190.91214206 -62.15375139 190.91214206 -62.5 193 C-63.1350416 195.5401664 -63.83243146 196.52914992 -66 198 C-68.6875 197.6875 -68.6875 197.6875 -71 197 C-73.24105897 191.61792923 -73.23693988 186.84254456 -73.125 181.125 C-73.11597656 180.24585938 -73.10695312 179.36671875 -73.09765625 178.4609375 C-73.07424577 176.3071729 -73.0383801 174.15354986 -73 172 C-73.66 172 -74.32 172 -75 172 C-75.9045614 168.12124073 -76.16425247 164.47997679 -76.1875 160.5 C-76.20167969 159.3965625 -76.21585938 158.293125 -76.23046875 157.15625 C-76 154 -76 154 -75.015625 151.56640625 C-73.66381534 148.15048722 -73.68070555 145.10187214 -73.5625 141.4375 C-73.08671218 131.0873396 -70.41181291 121.74803689 -67 112 C-66.34 112 -65.68 112 -65 112 C-64.90460938 110.98292969 -64.80921875 109.96585937 -64.7109375 108.91796875 C-63.95791479 104.76806889 -62.68021949 101.97634065 -60.625 98.3125 C-60.01914063 97.21550781 -59.41328125 96.11851562 -58.7890625 94.98828125 C-57 92 -57 92 -55.5234375 90.04296875 C-53.83397161 87.77735168 -52.48807076 85.37903485 -51.10644531 82.91748047 C-49.16132817 79.54657358 -47.02139579 76.30757019 -44.875 73.0625 C-44.43285156 72.37865234 -43.99070313 71.69480469 -43.53515625 70.99023438 C-42.41067296 69.28992052 -41.21125775 67.63962939 -40 66 C-39.34 66 -38.68 66 -38 66 C-38 65.34 -38 64.68 -38 64 C-37.34 64 -36.68 64 -36 64 C-35.8453125 62.824375 -35.8453125 62.824375 -35.6875 61.625 C-35 59 -35 59 -32 57 C-30.79549696 54.44816596 -30.79549696 54.44816596 -30 52 C-29.34 52 -28.68 52 -28 52 C-27.67 50.68 -27.34 49.36 -27 48 C-26.34 48 -25.68 48 -25 48 C-24.731875 47.26910156 -24.46375 46.53820312 -24.1875 45.78515625 C-23.02585603 43.0606426 -21.6875054 40.86328902 -20 38.4375 C-18.09937057 35.69584204 -16.42409849 33.01936265 -15 30 C-14.34 30 -13.68 30 -13 30 C-12.88398438 29.43925781 -12.76796875 28.87851563 -12.6484375 28.30078125 C-11.92121511 25.72045602 -10.86080318 23.5654849 -9.625 21.1875 C-6.87097085 15.78232209 -4.47397651 10.31645553 -2.375 4.625 C-1 1 -1 1 0 0 Z " fill="#FE8619" transform="translate(209,167)"/>
<path d="M0 0 C0.70125 0.185625 1.4025 0.37125 2.125 0.5625 C5.04616377 1.16547748 5.04616377 1.16547748 8.125 0.4375 C11 0 11 0 14 2 C14.37231445 4.94921875 14.37231445 4.94921875 14.36328125 8.6875 C14.36402901 9.67496216 14.36402901 9.67496216 14.36479187 10.68237305 C14.36245104 12.07441221 14.3527218 13.46645557 14.33618164 14.85839844 C14.31258934 16.9919205 14.3156196 19.12419319 14.32226562 21.2578125 C14.27909311 31.72090689 14.27909311 31.72090689 12 34 C9.74999197 34.04123051 7.49782808 33.98226151 5.25 33.875 C-5.42587748 33.61152565 -19.23498392 36.18475219 -27.5859375 43.36328125 C-28.74646307 44.5539939 -29.87646353 45.77432385 -31 47 C-31.66 47 -32.32 47 -33 47 C-33.26683594 47.67546875 -33.53367187 48.3509375 -33.80859375 49.046875 C-34.67386421 51.19161097 -35.56541585 53.32580269 -36.47265625 55.453125 C-39.36528293 62.312449 -41.61134084 68.48592285 -42 76 C-42.33 76.33 -42.66 76.66 -43 77 C-43.09098462 78.34908358 -43.11302978 79.70290464 -43.10679626 81.05503845 C-43.10528061 81.92859482 -43.10376495 82.80215118 -43.10220337 83.70217896 C-43.095466 84.6679184 -43.08872864 85.63365784 -43.08178711 86.62866211 C-43.07718727 88.14561928 -43.07718727 88.14561928 -43.07249451 89.69322205 C-43.06532076 91.89714781 -43.05592121 94.10106715 -43.04459953 96.30497551 C-43.02729119 99.78792111 -43.01693647 103.27082136 -43.00868225 106.75379944 C-42.98415353 116.65939636 -42.94859327 126.56493225 -42.90405273 136.47045898 C-42.87733455 142.52105364 -42.86024898 148.57161278 -42.84918404 154.62225533 C-42.84295598 156.93442662 -42.83292818 159.2465908 -42.81910515 161.55872917 C-42.79998183 164.78651354 -42.79300583 168.01411015 -42.78881836 171.24194336 C-42.78005676 172.20565857 -42.77129517 173.16937378 -42.76226807 174.16229248 C-42.76357224 175.03866867 -42.7648764 175.91504486 -42.76622009 176.81797791 C-42.76307769 177.58176726 -42.75993528 178.34555662 -42.75669765 179.13249111 C-43 181 -43 181 -45 183 C-47.87329102 183.24291992 -47.87329102 183.24291992 -51.50390625 183.23046875 C-52.80134766 183.22853516 -54.09878906 183.22660156 -55.43554688 183.22460938 C-56.11222412 183.21840576 -56.78890137 183.21220215 -57.48608398 183.20581055 C-59.55790471 183.18754052 -61.62927897 183.18530095 -63.70117188 183.18554688 C-73.85991743 183.14008257 -73.85991743 183.14008257 -75 182 C-75.09928884 179.72630629 -75.12632448 177.44945972 -75.12698364 175.17359924 C-75.12932363 174.09025115 -75.12932363 174.09025115 -75.13171089 172.98501724 C-75.13572346 170.5467132 -75.13253025 168.1084706 -75.12939453 165.67016602 C-75.13074847 163.92944299 -75.13252836 162.18872024 -75.13470459 160.44799805 C-75.13928014 155.70633156 -75.13748878 150.96468673 -75.1343255 146.22301984 C-75.13180213 141.2711514 -75.13413942 136.31928488 -75.13571167 131.36741638 C-75.1375336 123.04889593 -75.13512662 114.73038434 -75.13037109 106.41186523 C-75.12493021 96.78307782 -75.12668977 87.15431158 -75.1321975 77.52552468 C-75.13673009 69.27246117 -75.13737841 61.01940406 -75.13475883 52.76633972 C-75.13319663 47.83108068 -75.1330007 42.8958316 -75.13629532 37.9605732 C-75.13917608 33.32069784 -75.13719453 28.68084987 -75.13140106 24.04097748 C-75.13007449 22.33411899 -75.13046584 20.62725821 -75.13266373 18.92040062 C-75.1353793 16.59803035 -75.13198904 14.27574894 -75.12698364 11.9533844 C-75.12660662 10.65126794 -75.12622959 9.34915148 -75.12584114 8.00757694 C-75 5 -75 5 -74 3 C-69.90661348 2.95060885 -65.81334202 2.91428499 -61.71972656 2.89013672 C-60.32679219 2.88007123 -58.93387898 2.86641766 -57.54101562 2.84912109 C-55.5404564 2.8248978 -53.53974385 2.81459186 -51.5390625 2.8046875 C-49.73236084 2.78897705 -49.73236084 2.78897705 -47.88916016 2.77294922 C-45 3 -45 3 -43 5 C-42.68115234 7.06298828 -42.68115234 7.06298828 -42.5859375 9.5703125 C-42.52792969 10.91416016 -42.52792969 10.91416016 -42.46875 12.28515625 C-42.4378125 13.22230469 -42.406875 14.15945312 -42.375 15.125 C-42.31699219 16.54232422 -42.31699219 16.54232422 -42.2578125 17.98828125 C-42.16338654 20.32532375 -42.07781606 22.66235501 -42 25 C-41.40832031 24.31292969 -40.81664062 23.62585938 -40.20703125 22.91796875 C-39.41683594 22.01691406 -38.62664062 21.11585938 -37.8125 20.1875 C-36.64654297 18.84751953 -36.64654297 18.84751953 -35.45703125 17.48046875 C-33.10042148 15.1013794 -30.8809101 13.65689648 -28 12 C-27.67 11.34 -27.34 10.68 -27 10 C-26.01 10 -25.02 10 -24 10 C-22.97803008 9.02246356 -21.98020375 8.0194119 -21 7 C-14.6035513 3.50108789 -8.29290695 1.5344953 -1 2 C-0.67 1.34 -0.34 0.68 0 0 Z " fill="#FEFEFE" transform="translate(1723,140)"/>
<path d="M0 0 C0.99 0 1.98 0 3 0 C3 0.66 3 1.32 3 2 C3.7425 1.67 4.485 1.34 5.25 1 C8 0 8 0 12 0 C12 11.22 12 22.44 12 34 C4.74 34.33 -2.52 34.66 -10 35 C-10 35.33 -10 35.66 -10 36 C-10.6290625 36.07476562 -11.258125 36.14953125 -11.90625 36.2265625 C-21.20742292 37.65535713 -26.70428176 42.17963857 -33 49 C-33.70125 49.721875 -34.4025 50.44375 -35.125 51.1875 C-37.78423351 55.17635026 -38.77713008 59.40450159 -40 64 C-40.495 65.485 -40.495 65.485 -41 67 C-44.61087349 79.40231523 -44.45799975 91.61910549 -44.4765625 104.42578125 C-44.49089512 106.66783067 -44.50665614 108.90987136 -44.52377319 111.15190125 C-44.5653466 117.00884282 -44.59053719 122.8657302 -44.61126709 128.72277832 C-44.64730108 138.14190305 -44.70792532 147.56089492 -44.76975632 156.97987938 C-44.7888768 160.26883785 -44.80057742 163.55776031 -44.81118774 166.84675598 C-44.82139053 168.84355756 -44.83174765 170.84035836 -44.84228516 172.8371582 C-44.84384865 174.21541023 -44.84384865 174.21541023 -44.84544373 175.62150574 C-44.88655878 181.88655878 -44.88655878 181.88655878 -46 183 C-48.14558827 183.08775605 -50.29404421 183.10695219 -52.44140625 183.09765625 C-53.74658203 183.09443359 -55.05175781 183.09121094 -56.39648438 183.08789062 C-57.7851569 183.07953401 -59.17382877 183.07106905 -60.5625 183.0625 C-61.95507656 183.05748666 -63.34765481 183.05292347 -64.74023438 183.04882812 C-68.1601987 183.03699434 -71.58007844 183.0205088 -75 183 C-76.48162872 180.03674256 -76.1226073 177.3858698 -76.12025452 174.07785034 C-76.12110894 173.35743628 -76.12196337 172.63702221 -76.12284368 171.89477742 C-76.12449736 169.46872645 -76.11897895 167.04274387 -76.11352539 164.61669922 C-76.11324347 162.88243613 -76.11340135 161.14817293 -76.1139679 159.41390991 C-76.11425567 154.69516019 -76.10836209 149.9764357 -76.10139394 145.25769186 C-76.09515716 140.3302533 -76.09455634 135.40281421 -76.09336853 130.47537231 C-76.09025617 121.13978434 -76.08204407 111.80420802 -76.07201904 102.46862519 C-76.06085494 91.84242223 -76.0553467 81.21621872 -76.05032361 70.59001136 C-76.03986138 48.72666772 -76.02226378 26.86333459 -76 5 C-75.34 5 -74.68 5 -74 5 C-74 4.34 -74 3.68 -74 3 C-70.06739056 2.92578546 -66.13505278 2.87136864 -62.2019043 2.83520508 C-60.20672299 2.81271667 -58.21173787 2.77459802 -56.21679688 2.73632812 C-54.96318359 2.72666016 -53.70957031 2.71699219 -52.41796875 2.70703125 C-51.26063232 2.6913208 -50.1032959 2.67561035 -48.91088867 2.65942383 C-46 3 -46 3 -44.13085938 4.25390625 C-42.75578135 6.37708372 -42.57762802 7.71088996 -42.48828125 10.23046875 C-42.45283203 11.03291016 -42.41738281 11.83535156 -42.38085938 12.66210938 C-42.34702148 13.91217773 -42.34702148 13.91217773 -42.3125 15.1875 C-42.27833984 16.03248047 -42.24417969 16.87746094 -42.20898438 17.74804688 C-42.12658529 19.83156649 -42.06161355 21.91576216 -42 24 C-41.50371094 23.40832031 -41.00742187 22.81664062 -40.49609375 22.20703125 C-36.34208868 17.37514299 -32.46094265 13.31939651 -27 10 C-26.01 10 -25.02 10 -24 10 C-24 9.34 -24 8.68 -24 8 C-16.51065459 3.96727555 -9.4047756 1.90051167 -1 1 C-0.67 0.67 -0.34 0.34 0 0 Z " fill="#FEFEFE" transform="translate(981,140)"/>
<path d="M0 0 C0.33 0 0.66 0 1 0 C1 85.14 1 170.28 1 258 C0.67 258 0.34 258 0 258 C0 172.86 0 87.72 0 0 Z " fill="#FFFFFF" transform="translate(1212,146)"/>
<path d="M0 0 C0.33 0 0.66 0 1 0 C1 78.21 1 156.42 1 237 C0.67 237 0.34 237 0 237 C0 158.79 0 80.58 0 0 Z " fill="#FFFFFF" transform="translate(1766,84)"/>
<path d="M0 0 C0.33 0 0.66 0 1 0 C1 31.68 1 63.36 1 96 C0.67 96 0.34 96 0 96 C0 64.32 0 32.64 0 0 Z " fill="#FFFFFF" transform="translate(937,225)"/>
<path d="M0 0 C0.33 0 0.66 0 1 0 C1 7.92 1 15.84 1 24 C0.67 24 0.34 24 0 24 C0 16.08 0 8.16 0 0 Z " fill="#FFFFFF" transform="translate(438,196)"/>
<path d="M0 0 C0.33 0 0.66 0 1 0 C1 4.29 1 8.58 1 13 C0.67 13 0.34 13 0 13 C0 8.71 0 4.42 0 0 Z " fill="#FFFFFF" transform="translate(1361,226)"/>
<path d="M0 0 C1.98 0 3.96 0 6 0 C6 0.33 6 0.66 6 1 C4.02 1 2.04 1 0 1 C0 0.67 0 0.34 0 0 Z " fill="#FFFFFF" transform="translate(1106,324)"/>
<path d="M0 0 C1.98 0 3.96 0 6 0 C6 0.33 6 0.66 6 1 C4.02 1 2.04 1 0 1 C0 0.67 0 0.34 0 0 Z " fill="#FFFFFF" transform="translate(795,141)"/>
<path d="M0 0 C1.65 0 3.3 0 5 0 C5 0.33 5 0.66 5 1 C3.35 1 1.7 1 0 1 C0 0.67 0 0.34 0 0 Z " fill="#FFFFFF" transform="translate(1082,324)"/>
<path d="M0 0 C1.65 0 3.3 0 5 0 C5 0.33 5 0.66 5 1 C3.35 1 1.7 1 0 1 C0 0.67 0 0.34 0 0 Z " fill="#FFFFFF" transform="translate(1321,141)"/>
<path d="M0 0 C1.65 0 3.3 0 5 0 C5 0.33 5 0.66 5 1 C3.35 1 1.7 1 0 1 C0 0.67 0 0.34 0 0 Z " fill="#FFFFFF" transform="translate(1294,141)"/>
<path d="M0 0 C1.65 0 3.3 0 5 0 C5 0.33 5 0.66 5 1 C3.35 1 1.7 1 0 1 C0 0.67 0 0.34 0 0 Z " fill="#FFFFFF" transform="translate(766,141)"/>
<path d="M0 0 C1.65 0 3.3 0 5 0 C5 0.33 5 0.66 5 1 C3.35 1 1.7 1 0 1 C0 0.67 0 0.34 0 0 Z " fill="#FFFFFF" transform="translate(1079,93)"/>
<path d="M0 0 C4 1 4 1 4 1 Z " fill="#FFFFFF" transform="translate(1498,295)"/>
<path d="M0 0 C4 1 4 1 4 1 Z " fill="#FFFFFF" transform="translate(1292,295)"/>
<path d="M0 0 C4 1 4 1 4 1 Z " fill="#FFFFFF" transform="translate(1718,141)"/>
<path d="M0 0 C4 1 4 1 4 1 Z " fill="#FFFFFF" transform="translate(1489,141)"/>
<path d="M0 0 C4 1 4 1 4 1 Z " fill="#FFFFFF" transform="translate(574,141)"/>
<path d="M0 0 C4 1 4 1 4 1 Z " fill="#FFFFFF" transform="translate(548,141)"/>
<path d="M0 0 C3 1 3 1 3 1 Z " fill="#FFFFFF" transform="translate(1323,324)"/>
<path d="M0 0 C3 1 3 1 3 1 Z " fill="#FFFFFF" transform="translate(799,324)"/>
<path d="M0 0 C3 1 3 1 3 1 Z " fill="#FFFFFF" transform="translate(766,324)"/>
<path d="M0 0 C3 1 3 1 3 1 Z " fill="#FFFFFF" transform="translate(577,324)"/>
<path d="M0 0 C3 1 3 1 3 1 Z " fill="#FFFFFF" transform="translate(546,324)"/>
<path d="M0 0 C3 1 3 1 3 1 Z " fill="#FFFFFF" transform="translate(1518,295)"/>
<path d="M0 0 C3 1 3 1 3 1 Z " fill="#FFFFFF" transform="translate(1312,295)"/>
<path d="M0 0 C3 1 3 1 3 1 Z " fill="#FFFFFF" transform="translate(1108,295)"/>
<path d="M0 0 C3 1 3 1 3 1 Z " fill="#FFFFFF" transform="translate(1083,295)"/>
<path d="M0 0 C3 1 3 1 3 1 Z " fill="#FFFFFF" transform="translate(577,295)"/>
<path d="M0 0 C3 1 3 1 3 1 Z " fill="#FFFFFF" transform="translate(557,295)"/>
<path d="" fill="#FFFFFF" transform="translate(0,0)"/>
<path d="" fill="#FFFFFF" transform="translate(0,0)"/>
<path d="" fill="#FFFFFF" transform="translate(0,0)"/>
<path d="" fill="#FFFFFF" transform="translate(0,0)"/>
<path d="M0 0 C2 1 2 1 2 1 Z " fill="#FFFFFF" transform="translate(1519,324)"/>
<path d="M0 0 C2 1 2 1 2 1 Z " fill="#FFFFFF" transform="translate(1488,324)"/>
<path d="M0 0 C2 1 2 1 2 1 Z " fill="#FFFFFF" transform="translate(1293,324)"/>
<path d="M0 0 C2 1 2 1 2 1 Z " fill="#FFFFFF" transform="translate(798,295)"/>
<path d="M0 0 C2 1 2 1 2 1 Z " fill="#FFFFFF" transform="translate(768,295)"/>
<path d="" fill="#FFFFFF" transform="translate(0,0)"/>
<path d="" fill="#FFFFFF" transform="translate(0,0)"/>
<path d="" fill="#FFFFFF" transform="translate(0,0)"/>
<path d="" fill="#FFFFFF" transform="translate(0,0)"/>
<path d="M0 0 C2 1 2 1 2 1 Z " fill="#FFFFFF" transform="translate(1068,215)"/>
<path d="" fill="#FFFFFF" transform="translate(0,0)"/>
<path d="" fill="#FFFFFF" transform="translate(0,0)"/>
<path d="" fill="#FFFFFF" transform="translate(0,0)"/>
<path d="M0 0 C2 1 2 1 2 1 Z " fill="#FFFFFF" transform="translate(1080,122)"/>
<path d="" fill="#FFFFFF" transform="translate(0,0)"/>
<path d="" fill="#FFFFFF" transform="translate(0,0)"/>
<path d="" fill="#FFFFFF" transform="translate(0,0)"/>
<path d="" fill="#FFFFFF" transform="translate(0,0)"/>
<path d="" fill="#FFFFFF" transform="translate(0,0)"/>
<path d="" fill="#FFFFFF" transform="translate(0,0)"/>
<path d="" fill="#FFFFFF" transform="translate(0,0)"/>
<path d="" fill="#FFFFFF" transform="translate(0,0)"/>
<path d="" fill="#FFFFFF" transform="translate(0,0)"/>
<path d="" fill="#FFFFFF" transform="translate(0,0)"/>
<path d="" fill="#FFFFFF" transform="translate(0,0)"/>
<path d="" fill="#FFFFFF" transform="translate(0,0)"/>
<path d="" fill="#FFFFFF" transform="translate(0,0)"/>
<path d="" fill="#FFFFFF" transform="translate(0,0)"/>
<path d="" fill="#FFFFFF" transform="translate(0,0)"/>
<path d="" fill="#FFFFFF" transform="translate(0,0)"/>
<path d="" fill="#FFFFFF" transform="translate(0,0)"/>
<path d="" fill="#FFFFFF" transform="translate(0,0)"/>
<path d="" fill="#FFFFFF" transform="translate(0,0)"/>
<path d="" fill="#FFFFFF" transform="translate(0,0)"/>
<path d="" fill="#FFFFFF" transform="translate(0,0)"/>
<path d="" fill="#FFFFFF" transform="translate(0,0)"/>
<path d="" fill="#FFFFFF" transform="translate(0,0)"/>
<path d="" fill="#FFFFFF" transform="translate(0,0)"/>
<path d="" fill="#FFFFFF" transform="translate(0,0)"/>
<path d="" fill="#FFFFFF" transform="translate(0,0)"/>
<path d="" fill="#FFFFFF" transform="translate(0,0)"/>
<path d="" fill="#FFFFFF" transform="translate(0,0)"/>
<path d="" fill="#FFFFFF" transform="translate(0,0)"/>
<path d="" fill="#FFFFFF" transform="translate(0,0)"/>
<path d="" fill="#FFFFFF" transform="translate(0,0)"/>
<path d="" fill="#FFFFFF" transform="translate(0,0)"/>
<path d="" fill="#FFFFFF" transform="translate(0,0)"/>
<path d="" fill="#FFFFFF" transform="translate(0,0)"/>
<path d="" fill="#FFFFFF" transform="translate(0,0)"/>
<path d="" fill="#FFFFFF" transform="translate(0,0)"/>
<path d="" fill="#FFFFFF" transform="translate(0,0)"/>
<path d="" fill="#FFFFFF" transform="translate(0,0)"/>
<path d="" fill="#FFFFFF" transform="translate(0,0)"/>
</svg>
