<?xml version="1.0" encoding="UTF-8"?>
<svg version="1.1" xmlns="http://www.w3.org/2000/svg" width="1920" height="397">
<path d="M0 0 C6.38076915 0.07261188 11.07614911 2.42183006 16.625 5.375 C17.54539062 5.84421875 18.46578125 6.3134375 19.4140625 6.796875 C25.86039412 10.1743896 31.74147906 14.1069543 37.625 18.375 C38.34429687 18.86484375 39.06359375 19.3546875 39.8046875 19.859375 C41.44712349 20.98071684 43.0423203 22.17078719 44.625 23.375 C44.625 24.035 44.625 24.695 44.625 25.375 C45.285 25.375 45.945 25.375 46.625 25.375 C46.625 26.035 46.625 26.695 46.625 27.375 C47.19734375 27.6121875 47.7696875 27.849375 48.359375 28.09375 C51.1129292 29.65093238 52.79295634 31.49992797 54.875 33.875 C55.58140625 34.6690625 56.2878125 35.463125 57.015625 36.28125 C58.625 38.375 58.625 38.375 58.625 40.375 C59.615 40.705 60.605 41.035 61.625 41.375 C63.01953125 43.125 63.01953125 43.125 64.4375 45.375 C67.02652437 49.44346687 69.73071764 53.40074099 72.5234375 57.33203125 C73.625 59.375 73.625 59.375 73.625 63.375 C74.285 63.375 74.945 63.375 75.625 63.375 C76.34257297 65.28852793 77.05952179 67.20229208 77.7734375 69.1171875 C78.51598784 71.08596775 79.28685361 73.04402215 80.0625 75 C80.30484375 75.67933594 80.5471875 76.35867187 80.796875 77.05859375 C81.38833076 78.71299596 82.02962888 80.34992104 82.703125 81.97265625 C90.03950298 102.40601888 86.73239739 125.81300916 78.359375 145.32421875 C77.1972397 147.72983883 75.9213462 150.03934176 74.625 152.375 C74.019817 153.59458719 73.42140254 154.8175459 72.828125 156.04296875 C72.51544678 156.68637207 72.20276855 157.32977539 71.88061523 157.99267578 C71.2626525 159.26699397 70.6474749 160.54266739 70.03540039 161.81982422 C67.84845981 166.2632701 67.84845981 166.2632701 65.625 167.375 C64.59067096 169.35746398 63.59261608 171.35913316 62.625 173.375 C61.965 174.365 61.305 175.355 60.625 176.375 C59.965 176.375 59.305 176.375 58.625 176.375 C58.521875 176.931875 58.41875 177.48875 58.3125 178.0625 C57.48321592 180.8519101 56.28200944 182.9889064 54.625 185.375 C53.965 185.375 53.305 185.375 52.625 185.375 C52.4703125 186.48875 52.4703125 186.48875 52.3125 187.625 C51.57566203 190.5723519 50.67700858 192.15883074 48.625 194.375 C47.965 194.375 47.305 194.375 46.625 194.375 C46.625 195.365 46.625 196.355 46.625 197.375 C45.965 197.375 45.305 197.375 44.625 197.375 C44.4703125 198.5196875 44.4703125 198.5196875 44.3125 199.6875 C43.54675108 202.68088214 42.78621576 203.29937367 40.625 205.375 C39.0047981 207.71182966 37.42680007 210.05628447 35.875 212.4375 C32.32006701 217.84397418 28.69353696 223.17664769 24.90234375 228.421875 C23.45952519 230.44709523 23.45952519 230.44709523 22.625 233.375 C21.965 233.375 21.305 233.375 20.625 233.375 C20.295 235.355 19.965 237.335 19.625 239.375 C18.635 239.375 17.645 239.375 16.625 239.375 C16.521875 240.426875 16.41875 241.47875 16.3125 242.5625 C15.64550668 246.26128113 14.87509992 248.40486811 12.625 251.375 C11.965 251.375 11.305 251.375 10.625 251.375 C10.521875 252.035 10.41875 252.695 10.3125 253.375 C9.61396452 256.42315482 8.57288286 259.22864718 7.4453125 262.140625 C6.27451542 265.32965324 5.34104473 268.57794793 4.3828125 271.8359375 C3.62286112 274.38216634 2.82583148 276.91189886 2 279.4375 C1.76023437 280.17097656 1.52046875 280.90445312 1.2734375 281.66015625 C0.625 283.375 0.625 283.375 -0.375 284.375 C-3.05724669 299.97901905 -3.14584925 315.78023328 -1.5 331.5 C-1.42168945 332.2643335 -1.34337891 333.02866699 -1.26269531 333.81616211 C-0.83764753 338.04384441 -0.83764753 338.04384441 1.625 341.375 C3.0069156 345.44397371 4.0053515 349.06434962 3.625 353.375 C2.625 354.375 2.625 354.375 0.1875 354.6875 C-4.77710257 354.25200855 -8.83163979 352.32215438 -13.375 350.375 C-14.365 350.045 -15.355 349.715 -16.375 349.375 C-16.375 348.715 -16.375 348.055 -16.375 347.375 C-17.035 347.271875 -17.695 347.16875 -18.375 347.0625 C-20.87172534 346.49033378 -23.2071801 345.83058201 -25.625 345 C-26.31078125 344.76539063 -26.9965625 344.53078125 -27.703125 344.2890625 C-29.375 343.375 -29.375 343.375 -30.375 340.375 C-31.53 340.313125 -32.685 340.25125 -33.875 340.1875 C-38.93804524 339.56243269 -42.24467586 337.19971472 -46.375 334.375 C-48.68907052 333.00499999 -51.03096867 331.69351763 -53.375 330.375 C-53.375 329.715 -53.375 329.055 -53.375 328.375 C-54.09300781 328.2821875 -54.81101563 328.189375 -55.55078125 328.09375 C-58.84955384 327.25422835 -60.83255206 325.89045325 -63.5625 323.875 C-66.84750468 321.4254742 -66.84750468 321.4254742 -70.375 319.375 C-70.375 318.385 -70.375 317.395 -70.375 316.375 C-71.096875 316.148125 -71.81875 315.92125 -72.5625 315.6875 C-76.92543277 313.65146471 -79.54869157 310.42003713 -82.5 306.6875 C-84.34061073 304.18346331 -84.34061073 304.18346331 -87.375 302.375 C-88.36581534 300.7236411 -89.34958175 299.06686115 -90.26953125 297.375 C-91.42472373 295.28504046 -92.66373492 293.26966355 -93.9375 291.25 C-94.56398438 290.24839844 -94.56398438 290.24839844 -95.203125 289.2265625 C-96.18084252 287.68176882 -97.18141654 286.15147146 -98.1875 284.625 C-99.375 282.375 -99.375 282.375 -99.375 278.375 C-100.035 278.375 -100.695 278.375 -101.375 278.375 C-104.96050615 268.08842653 -107.44759351 258.76600568 -108.12890625 247.87890625 C-108.22392324 245.37916782 -108.22392324 245.37916782 -109.375 243.375 C-109.47255284 241.20877475 -109.50577109 239.03951351 -109.5078125 236.87109375 C-109.50910156 235.57365234 -109.51039062 234.27621094 -109.51171875 232.93945312 C-109.50962402 232.26277588 -109.5075293 231.58609863 -109.50537109 230.88891602 C-109.50001202 228.81714585 -109.50532518 226.74559161 -109.51171875 224.67382812 C-109.51042969 223.37767578 -109.50914063 222.08152344 -109.5078125 220.74609375 C-109.50668457 219.54911865 -109.50555664 218.35214355 -109.50439453 217.11889648 C-109.375 214.375 -109.375 214.375 -108.375 213.375 C-108.16482984 211.06604731 -108.00660059 208.75226031 -107.875 206.4375 C-107.48521814 199.59543628 -107.48521814 199.59543628 -106.375 197.375 C-105.9387189 194.21104544 -105.55831073 191.04790821 -105.21289062 187.87304688 C-104.78684869 184.33655242 -104.3883935 182.39509025 -102.375 179.375 C-101.99000109 177.71950469 -101.64706865 176.0527567 -101.375 174.375 C-100.715 174.375 -100.055 174.375 -99.375 174.375 C-99.42527344 173.64667969 -99.47554687 172.91835937 -99.52734375 172.16796875 C-99.35393723 168.98884915 -98.56167417 167.39752432 -96.9375 164.6875 C-96.25880859 163.53701172 -96.25880859 163.53701172 -95.56640625 162.36328125 C-95.17324219 161.70714844 -94.78007813 161.05101562 -94.375 160.375 C-93.88 159.385 -93.88 159.385 -93.375 158.375 C-92.715 158.375 -92.055 158.375 -91.375 158.375 C-90.715 156.395 -90.055 154.415 -89.375 152.375 C-88.715 152.375 -88.055 152.375 -87.375 152.375 C-87.375 151.715 -87.375 151.055 -87.375 150.375 C-86.715 150.375 -86.055 150.375 -85.375 150.375 C-84.9728125 149.26125 -84.9728125 149.26125 -84.5625 148.125 C-83.42223249 145.48438051 -82.28119694 143.51947156 -80.375 141.375 C-79.715 141.375 -79.055 141.375 -78.375 141.375 C-78.045 140.385 -77.715 139.395 -77.375 138.375 C-76.715 138.375 -76.055 138.375 -75.375 138.375 C-75.1275 137.818125 -74.88 137.26125 -74.625 136.6875 C-73.13629471 133.93339521 -71.49090028 131.68325486 -69.375 129.375 C-68.385 129.375 -67.395 129.375 -66.375 129.375 C-66.148125 128.818125 -65.92125 128.26125 -65.6875 127.6875 C-64.0157496 124.74203501 -61.79218785 122.73175815 -59.375 120.375 C-58.385 118.89 -58.385 118.89 -57.375 117.375 C-56.385 117.375 -55.395 117.375 -54.375 117.375 C-54.065625 116.75625 -53.75625 116.1375 -53.4375 115.5 C-52.75 114.125 -52.0625 112.75 -51.375 111.375 C-50.385 111.375 -49.395 111.375 -48.375 111.375 C-48.375 110.715 -48.375 110.055 -48.375 109.375 C-47.715 109.375 -47.055 109.375 -46.375 109.375 C-45.385 107.395 -45.385 107.395 -44.375 105.375 C-43.715 105.375 -43.055 105.375 -42.375 105.375 C-42.148125 104.653125 -41.92125 103.93125 -41.6875 103.1875 C-40.10573192 99.79799697 -38.0759863 97.95035903 -35.375 95.375 C-32.01317952 91.6306565 -32.01317952 91.6306565 -29.375 87.375 C-28.715 87.375 -28.055 87.375 -27.375 87.375 C-27.065625 86.75625 -26.75625 86.1375 -26.4375 85.5 C-25.75 84.125 -25.0625 82.75 -24.375 81.375 C-23.715 81.375 -23.055 81.375 -22.375 81.375 C-22.045 79.725 -21.715 78.075 -21.375 76.375 C-20.385 76.045 -19.395 75.715 -18.375 75.375 C-18.2925 74.50875 -18.21 73.6425 -18.125 72.75 C-17.26495645 68.87980404 -15.62227369 66.60545593 -13.375 63.375 C-12.60560319 61.14897385 -12.60560319 61.14897385 -12.375 59.375 C-11.715 59.375 -11.055 59.375 -10.375 59.375 C-10.30152344 58.45267578 -10.30152344 58.45267578 -10.2265625 57.51171875 C-10.15179688 56.70347656 -10.07703125 55.89523438 -10 55.0625 C-9.93039063 54.26199219 -9.86078125 53.46148437 -9.7890625 52.63671875 C-9.375 50.375 -9.375 50.375 -7.375 47.375 C-6.82450561 44.85044424 -6.82450561 44.85044424 -6.5234375 42 C-6.39453125 40.93136719 -6.265625 39.86273438 -6.1328125 38.76171875 C-6.00648437 37.64410156 -5.88015625 36.52648438 -5.75 35.375 C-5.6159375 34.28832031 -5.481875 33.20164063 -5.34375 32.08203125 C-4.31370697 23.28462292 -3.80340367 14.56436895 -4.9375 5.75 C-5.12323658 4.29620999 -5.28170439 2.8376344 -5.375 1.375 C-3.78968315 -0.21031685 -2.19959526 0.09020422 0 0 Z " fill="#FE851A" transform="translate(114.375,1.625)"/>
<path d="M0 0 C17.30309592 12.32589405 25.77439925 33.73224458 29.53271484 53.85180664 C31.69446011 68.41591596 31.10789834 84.8505724 27 99 C26.69835938 100.05960937 26.39671875 101.11921875 26.0859375 102.2109375 C22.58760272 113.50231072 17.25303429 122.70267419 10 132 C9.18402344 133.06734375 9.18402344 133.06734375 8.3515625 134.15625 C-2.6861437 147.72455225 -19.06151465 155.76746463 -36 159 C-37.7015625 159.3403125 -37.7015625 159.3403125 -39.4375 159.6875 C-62.99670477 161.75409691 -83.09713747 156.67865412 -101.5625 141.95703125 C-106.37332831 137.86624467 -109.17758206 134.35138511 -113 129 C-113.33 164.97 -113.66 200.94 -114 238 C-123.57 238 -133.14 238 -143 238 C-143 154.84 -143 71.68 -143 -14 C-133.43 -14 -123.86 -14 -114 -14 C-113.67 -5.09 -113.34 3.82 -113 13 C-110.03 9.7 -107.06 6.4 -104 3 C-93.12063994 -6.83613376 -80.45264306 -13.32194516 -66 -16 C-65.22527344 -16.18175781 -64.45054688 -16.36351562 -63.65234375 -16.55078125 C-40.828778 -20.41633362 -18.43812219 -13.09175219 0 0 Z M-98.1875 25.9375 C-111.10987472 40.95873176 -115.31265789 59.1769787 -114.21142578 78.65576172 C-112.71642834 95.23193429 -105.42892252 110.79149873 -92.8125 121.6875 C-79.97250125 131.76863415 -65.14082583 135.23763521 -49 134 C-33.06273869 131.66487014 -20.64757 123.42193488 -10.75 110.9375 C0.73316469 94.4464643 1.65478248 74.43957598 -0.42578125 55.02734375 C-3.4658561 39.97617561 -11.65159619 27.00496925 -23.8828125 17.83984375 C-47.76577 2.84134644 -78.32702498 5.7126126 -98.1875 25.9375 Z " fill="#000000" transform="translate(1322,155)"/>
<path d="M0 0 C9.57 0 19.14 0 29 0 C29 76.23 29 152.46 29 231 C19.43 231 9.86 231 0 231 C-0.33 221.43 -0.66 211.86 -1 202 C-2.98 204.64 -4.96 207.28 -7 210 C-19.32019997 224.49975117 -36.73309579 232.08507309 -55.44140625 233.8359375 C-70.96050897 234.83105554 -84.92764131 232.81248578 -99 226 C-100.18335938 225.42958984 -100.18335938 225.42958984 -101.390625 224.84765625 C-120.18355786 215.08978727 -133.61396507 197.43845862 -140.00390625 177.47265625 C-140.33261719 176.32667969 -140.66132813 175.18070313 -141 174 C-141.47759766 172.42025391 -141.47759766 172.42025391 -141.96484375 170.80859375 C-148.1236317 146.31534952 -145.2375909 118.17529557 -133 96 C-130.5442986 92.13903981 -127.88060385 88.55151372 -125 85 C-124.21625 83.948125 -123.4325 82.89625 -122.625 81.8125 C-107.54067375 65.65072188 -87.87151729 58.20852473 -66.1875 56.7421875 C-43.75162486 56.07445312 -24.28821721 63.64652598 -7.91015625 78.953125 C-5.25402897 81.53863949 -3.06498776 83.90251836 -1 87 C-0.505 43.935 -0.505 43.935 0 0 Z M-96 96.62109375 C-109.62460412 109.30292392 -114.1974534 126.49075147 -114.95703125 144.45214844 C-115.26212678 162.54292651 -109.15630867 179.61799347 -96.6875 192.8125 C-84.59872694 204.26717498 -70.23080208 208.37078008 -53.87890625 208.2109375 C-37.63067964 207.32734814 -24.78366621 199.62429052 -14 187.80859375 C-2.43539363 173.87623392 0.86368028 155.71092441 -0.25 138.03125 C-1.13955867 130.21584171 -2.85848551 123.20562989 -6 116 C-6.27457031 115.31808594 -6.54914063 114.63617188 -6.83203125 113.93359375 C-12.52124538 101.07441113 -23.46769225 91.51361993 -36.25 86.125 C-57.5097522 78.70295633 -78.57455128 82.49695074 -96 96.62109375 Z " fill="#000000" transform="translate(612,81)"/>
<path d="M0 0 C4.77350422 4.04858811 7.42244595 7.72992794 11.375 13 C11.705 4.09 12.035 -4.82 12.375 -14 C22.275 -14 32.175 -14 42.375 -14 C42.375 42.43 42.375 98.86 42.375 157 C32.475 157 22.575 157 12.375 157 C12.045 147.76 11.715 138.52 11.375 129 C8.735 132.3 6.095 135.6 3.375 139 C-11.51174673 154.1082757 -31.25357148 159.79068602 -51.9375 160.1875 C-73.58224634 159.90902958 -91.06930809 151.88662989 -106.625 137 C-107.511875 136.195625 -108.39875 135.39125 -109.3125 134.5625 C-126.72070007 115.27233236 -132.83841501 89.81986551 -131.77294922 64.37060547 C-130.25724833 40.084375 -121.57035553 18.44801572 -103.25390625 1.8515625 C-73.99804034 -22.58293671 -29.87437175 -24.4741322 0 0 Z M-85.625 25 C-98.24701656 37.82935975 -102.16288807 56.10122277 -102.04492188 73.46191406 C-101.56552317 89.63240129 -96.28119026 106.1618899 -84.83984375 117.9765625 C-70.81476807 130.7895946 -56.26196887 134.7384826 -37.625 134 C-22.46810529 132.50776001 -10.20500001 124.79172292 -0.42578125 113.44921875 C11.3701173 97.40577322 14.66939021 78.18074186 12.06591797 58.68554688 C9.11034213 41.910861 0.92303951 27.50494718 -13.0625 17.5625 C-37.39529901 2.98861508 -64.67071582 6.1440586 -85.625 25 Z " fill="#000000" transform="translate(1509.625,155)"/>
<path d="M0 0 C0.69867187 0.60328125 1.39734375 1.2065625 2.1171875 1.828125 C2.79523438 2.41078125 3.47328125 2.9934375 4.171875 3.59375 C10.1709757 9.14933742 14.17092279 15.71636193 18.1171875 22.828125 C18.60316406 23.70210937 19.08914063 24.57609375 19.58984375 25.4765625 C27.8864132 41.96821431 28.44022442 60.73992922 27.1171875 78.828125 C26.7871875 79.488125 26.4571875 80.148125 26.1171875 80.828125 C-18.4328125 81.158125 -62.9828125 81.488125 -108.8828125 81.828125 C-105.46837776 100.03844363 -101.42236084 113.25264532 -86.1953125 124.078125 C-73.05220079 132.47190651 -57.77727508 134.56644116 -42.48828125 132.33203125 C-31.01713381 129.72562163 -23.05052052 124.20526143 -14.8828125 115.828125 C-12.5728125 111.538125 -10.2628125 107.248125 -7.8828125 102.828125 C2.6771875 102.828125 13.2371875 102.828125 24.1171875 102.828125 C19.74421673 117.40469423 13.75506539 127.3294054 3.1171875 137.828125 C2.4365625 138.50746094 1.7559375 139.18679688 1.0546875 139.88671875 C-15.32510995 155.20865428 -37.37503565 159.54611683 -59.09765625 159.078125 C-82.4482691 158.1394069 -103.12396799 148.09655634 -119.203125 131.421875 C-135.58302197 112.15140798 -141.38660543 86.19413357 -139.43774414 61.38500977 C-137.59593346 41.95974973 -132.85451698 24.91765878 -119.8828125 9.828125 C-119.38652344 9.17714844 -118.89023437 8.52617187 -118.37890625 7.85546875 C-110.71393838 -1.80738548 -99.33490254 -8.90575291 -87.8828125 -13.171875 C-87.11066406 -13.46578125 -86.33851563 -13.7596875 -85.54296875 -14.0625 C-57.48748755 -23.58549196 -23.00699073 -18.83134473 0 0 Z M-97.66796875 25.80078125 C-105.15063723 35.12062664 -108.8828125 45.98138815 -108.8828125 57.828125 C-73.9028125 57.828125 -38.9228125 57.828125 -2.8828125 57.828125 C-2.8828125 44.11611628 -6.63937471 31.68961211 -16.1484375 21.4453125 C-28.5222144 9.90760161 -43.50589881 6.46660654 -60.03125 6.61328125 C-75.58727429 7.4810108 -87.36245044 14.41284526 -97.66796875 25.80078125 Z " fill="#000000" transform="translate(816.8828125,156.171875)"/>
<path d="M0 0 C0.99700928 0.00563965 1.99401855 0.0112793 3.02124023 0.01708984 C24.78092432 0.36948752 43.53085786 6.47746988 59.125 22.375 C62.40540974 26.30737401 64.87931556 30.54452668 67.25 35.0625 C67.58418945 35.68133057 67.91837891 36.30016113 68.26269531 36.93774414 C71.52866504 43.55629402 71.64932523 48.34561402 72.875 56.3125 C62.315 56.3125 51.755 56.3125 40.875 56.3125 C39.225 52.3525 37.575 48.3925 35.875 44.3125 C29.57779718 34.5705701 20.06533916 29.30448698 8.95678711 26.69628906 C-3.81778027 24.34122633 -17.15868916 26.30991903 -28.1875 33.25 C-35.07234698 38.30056293 -39.11139458 44.83611386 -40.66796875 53.24609375 C-41.70149443 62.79100736 -40.71696644 70.30859879 -34.9921875 78.18359375 C-29.73269314 84.18029757 -23.30912156 87.4577811 -15.90625 90.171875 C-15.21387238 90.42835312 -14.52149475 90.68483124 -13.80813599 90.94908142 C-5.64206625 93.92376212 2.67147456 96.40183529 11 98.875 C58.28930738 112.96213087 58.28930738 112.96213087 69.02587891 132.5690918 C75.51546079 145.42485966 77.19738319 160.95882005 73.8125 175.0625 C67.65726934 193.69996587 56.24853865 206.47748353 38.875 215.625 C18.24516167 225.47166732 -8.05179459 224.86253946 -29.59765625 218.24609375 C-45.90087723 212.46846105 -59.73222415 201.97935295 -67.59765625 186.39453125 C-71.24246198 178.18043553 -73.125 170.29916965 -73.125 161.3125 C-62.895 161.3125 -52.665 161.3125 -42.125 161.3125 C-41.465 163.560625 -40.805 165.80875 -40.125 168.125 C-36.78641717 178.49865541 -31.64215036 186.993134 -21.71875 192.1640625 C-8.15458988 198.16988039 9.17368097 198.76240941 23.1484375 193.5625 C32.8441734 189.11746349 38.84342356 183.06464753 43.25 173.25 C45.24571858 163.87012266 45.69005955 154.69091482 40.75 146.0625 C32.75830833 134.66909701 20.6178967 130.22177379 7.75 126.4375 C6.62416504 126.09726807 5.49833008 125.75703613 4.33837891 125.40649414 C-1.29096098 123.7134448 -6.93384452 122.07600627 -12.59375 120.48828125 C-43.92840736 111.67456399 -43.92840736 111.67456399 -55.125 101.3125 C-55.75792969 100.74660156 -56.39085937 100.18070312 -57.04296875 99.59765625 C-67.51871812 89.74732475 -71.51142748 77.13842992 -72.16015625 62.9296875 C-71.98629455 45.04125051 -66.54600263 31.64437184 -54.51953125 18.640625 C-51.03748701 15.25514642 -47.33382932 12.7088785 -43.125 10.3125 C-42.50238281 9.94640625 -41.87976563 9.5803125 -41.23828125 9.203125 C-28.74877193 2.395426 -14.07028481 -0.08456426 0 0 Z " fill="#000000" transform="translate(1063.125,91.6875)"/>
<path d="M0 0 C9.57 0 19.14 0 29 0 C30.68470279 1.68470279 30.14276774 3.78254612 30.15821838 6.09352112 C30.1680072 7.19714996 30.17779602 8.30077881 30.18788147 9.43785095 C30.19651466 11.26987816 30.19651466 11.26987816 30.20532227 13.13891602 C30.21522186 14.41677979 30.22512146 15.69464355 30.23532104 17.01123047 C30.2624333 20.52550176 30.28340851 24.03978658 30.30332303 27.55410504 C30.32514374 31.22302054 30.35255152 34.89189407 30.37937927 38.56077576 C30.42935927 45.51287391 30.47427833 52.46499529 30.51740164 59.41713899 C30.56672876 67.3299776 30.62166361 75.24277412 30.67708123 83.15557206 C30.79098271 99.43700927 30.89780387 115.71848502 31 132 C32.57467541 130.28286117 34.14715886 128.56371212 35.71875 126.84375 C36.59466797 125.88662109 37.47058594 124.92949219 38.37304688 123.94335938 C40.83232795 121.18786749 43.18402863 118.37628703 45.5 115.5 C49.33835414 110.74260332 53.39622359 106.24216082 57.53515625 101.74609375 C59.92707297 99.08124834 62.19254884 96.35168175 64.4375 93.5625 C68.09141227 89.03216433 71.93714652 84.75181758 75.90063477 80.49609375 C79.77539745 76.30996012 83.38388467 71.94198567 86.9296875 67.47265625 C87.61289063 66.65667969 88.29609375 65.84070313 89 65 C89.67716064 64.13407227 90.35432129 63.26814453 91.05200195 62.37597656 C95.14256043 59.07913887 98.13953228 59.35676226 103.23828125 59.51171875 C104.11904831 59.51879349 104.99981537 59.52586823 105.90727234 59.53315735 C108.70989285 59.56106152 111.51048735 59.62379057 114.3125 59.6875 C116.21676794 59.7125881 118.12106732 59.73540038 120.02539062 59.75585938 C124.68436984 59.81087497 129.34184189 59.89711849 134 60 C132.47396585 63.21630141 130.90199229 65.28769299 128.3125 67.75 C125.61995648 70.37003337 123.06173621 73.01574183 120.625 75.875 C117.88378551 79.06682509 114.99314112 82.04302977 112 85 C108.41441301 88.54232199 105.05108338 92.17555661 101.77734375 96.00390625 C99.04900715 99.06803813 96.10332092 101.90481832 93.18359375 104.78515625 C91.22025329 106.77659461 89.37920331 108.81302578 87.5625 110.9375 C84.0553056 115.03058303 80.24274842 118.77224704 76.41015625 122.55859375 C73.73702099 125.26638879 71.2629843 128.09353866 68.796875 130.98828125 C65.99489385 134.12528188 62.95570242 137.01485276 59.91796875 139.921875 C58.10640296 141.88471206 57.03937142 143.55830206 56 146 C56.49628906 146.4846875 56.99257812 146.969375 57.50390625 147.46875 C60.89981304 150.81954987 64.21549201 154.18178433 67.3125 157.8125 C70.22250432 161.20195583 73.32159559 164.364518 76.5 167.5 C80.24031312 171.18993853 83.78239347 174.97503694 87.19140625 178.97265625 C90.1740589 182.3160617 93.40356692 185.4107637 96.58984375 188.55859375 C99.26854532 191.27202727 101.74608118 194.10777023 104.22265625 197.00390625 C106.23268777 199.26132626 108.34832953 201.37735713 110.5 203.5 C113.8811574 206.83554314 117.02289794 210.28105731 120.10546875 213.890625 C123.16131274 217.29300799 126.46963236 220.43742614 129.765625 223.60546875 C131.94873141 225.94505657 133.404129 228.24274046 135 231 C129.52367295 231.32450886 124.05306953 231.55859532 118.56933594 231.71411133 C116.71027078 231.77898865 114.85185601 231.86734059 112.99511719 231.98071289 C96.74582128 232.94709997 96.74582128 232.94709997 91.1550293 228.19555664 C88.04563994 225.05660639 85.52922746 221.6152157 83 218 C81.79061729 216.58699086 80.56704375 215.18557005 79.3125 213.8125 C78.78269531 213.20019531 78.25289062 212.58789062 77.70703125 211.95703125 C75.66366569 209.6144085 73.58319141 207.30726578 71.5 205 C68.23609152 201.38323655 65.01209051 197.73610392 61.8125 194.0625 C59.72788836 191.69035571 57.61571356 189.34443935 55.5 187 C52.23977745 183.38732096 49.01856435 179.74511009 45.82421875 176.07421875 C42.95736798 172.81448051 40.03411516 169.60589216 37.11328125 166.39453125 C34.99708223 163.99669391 32.99784491 161.49730614 31 159 C30.67 182.76 30.34 206.52 30 231 C20.1 231 10.2 231 0 231 C0 154.77 0 78.54 0 0 Z " fill="#000000" transform="translate(1714,81)"/>
<path d="M0 0 C38.61 0 77.22 0 117 0 C117 7.92 117 15.84 117 24 C87.96 24 58.92 24 29 24 C29 47.76 29 71.52 29 96 C55.07 96 81.14 96 108 96 C108 103.92 108 111.84 108 120 C81.93 120 55.86 120 29 120 C29 144.42 29 168.84 29 194 C58.04 194 87.08 194 117 194 C117 201.92 117 209.84 117 218 C78.39 218 39.78 218 0 218 C0 146.06 0 74.12 0 0 Z " fill="#000000" transform="translate(319,94)"/>
<path d="M0 0 C1.32 0 2.64 0 4 0 C8.16474492 4.64071577 8.73425934 9.02083518 9 15 C9.66 15 10.32 15 11 15 C11.20496094 15.92683594 11.40992188 16.85367188 11.62109375 17.80859375 C11.89050781 19.00613281 12.15992188 20.20367187 12.4375 21.4375 C12.70433594 22.63246094 12.97117187 23.82742187 13.24609375 25.05859375 C13.70066748 27.8704686 13.70066748 27.8704686 15 29 C15.27147331 30.33955286 15.48993624 31.6899734 15.68359375 33.04296875 C15.86825195 34.28336914 15.86825195 34.28336914 16.05664062 35.54882812 C16.30770564 37.28825807 16.55773012 39.02783857 16.80664062 40.76757812 C16.93103516 41.60095703 17.05542969 42.43433594 17.18359375 43.29296875 C17.29243896 44.0511792 17.40128418 44.80938965 17.51342773 45.59057617 C17.96624539 48.11889939 17.96624539 48.11889939 19.02563477 50.91870117 C24.8090385 69.20793657 19.27404838 91.13049052 11.375 107.9375 C9.557302 111.2534922 7.47194133 114.12935846 5 117 C4.24589844 118.25296875 4.24589844 118.25296875 3.4765625 119.53125 C0.17509312 124.53574325 -4.3137096 128.56177001 -8.5625 132.75 C-9.42552734 133.61238281 -10.28855469 134.47476563 -11.17773438 135.36328125 C-19.87527509 144 -19.87527509 144 -24 144 C-24.2475 144.804375 -24.495 145.60875 -24.75 146.4375 C-25.1625 147.283125 -25.575 148.12875 -26 149 C-27.32303717 149.3721042 -28.65737935 149.70630173 -30 150 C-30.70394612 151.31403276 -31.36345658 152.6520257 -32 154 C-34.54189954 156.7537245 -37.22011899 159.20680047 -40.125 161.5625 C-42.54951754 163.61806922 -44.13555272 165.48299618 -46 168 C-46.66 168 -47.32 168 -48 168 C-48.37125 169.2065625 -48.37125 169.2065625 -48.75 170.4375 C-50 173 -50 173 -52.125 173.8125 C-52.74375 173.874375 -53.3625 173.93625 -54 174 C-54.185625 175.11375 -54.185625 175.11375 -54.375 176.25 C-55.35954017 180.58197674 -56.91311633 182.91311633 -60 186 C-61.02304948 187.65261839 -62.02616054 189.31791365 -63 191 C-64 192 -64 192 -66.5625 192.0625 C-67.366875 192.041875 -68.17125 192.02125 -69 192 C-71.31040672 186.18671857 -71.39371906 180.78860309 -71.56640625 174.6328125 C-71.74497321 170.02112675 -72.46607404 166.38873262 -74 162 C-74.265625 158.96484375 -74.265625 158.96484375 -74.25 155.9375 C-74.25515625 154.93589844 -74.2603125 153.93429687 -74.265625 152.90234375 C-74 150 -74 150 -73.01416016 147.63012695 C-71.9805249 144.94949319 -71.67079328 142.87025814 -71.5078125 140.015625 C-71.44207031 139.07976562 -71.37632812 138.14390625 -71.30859375 137.1796875 C-71.18720306 135.24260209 -71.07250469 133.30508448 -70.96484375 131.3671875 C-70.54518533 125.58698662 -69.52761206 121.06165722 -66.90869141 115.87231445 C-65.82095388 113.63108417 -65.3181 111.46527497 -65 109 C-64.34 109 -63.68 109 -63 109 C-62.90589844 107.98292969 -62.81179687 106.96585937 -62.71484375 105.91796875 C-61.95415148 101.74871005 -60.65033336 98.98031536 -58.5625 95.3125 C-57.94503906 94.21550781 -57.32757813 93.11851562 -56.69140625 91.98828125 C-55.85416016 90.50908203 -55.85416016 90.50908203 -55 89 C-54.32209479 87.67234539 -53.64963719 86.34171299 -53 85 C-52.34 85 -51.68 85 -51 85 C-50.88527344 84.42765625 -50.77054688 83.8553125 -50.65234375 83.265625 C-49.93817644 80.78528344 -48.92692128 78.93631303 -47.5625 76.75 C-46.91474609 75.69039062 -46.91474609 75.69039062 -46.25390625 74.609375 C-45.84011719 74.07828125 -45.42632812 73.5471875 -45 73 C-44.34 73 -43.68 73 -43 73 C-42.34 71.02 -41.68 69.04 -41 67 C-40.34 67 -39.68 67 -39 67 C-38.7525 66.46375 -38.505 65.9275 -38.25 65.375 C-35.6509435 60.43679264 -32.30345525 56.04488351 -29 51.5625 C-26.71683363 48.44909131 -24.54819883 45.38374189 -22.6875 42 C-21 39 -21 39 -19.53515625 37.5546875 C-17.85251937 35.85064303 -16.87979232 34.23341524 -15.75 32.125 C-15.3271875 31.33996094 -14.904375 30.55492187 -14.46875 29.74609375 C-13.9840625 28.83988281 -13.499375 27.93367188 -13 27 C-12.3915625 25.89785156 -11.783125 24.79570312 -11.15625 23.66015625 C-10.21265625 21.94119141 -10.21265625 21.94119141 -9.25 20.1875 C-8.65703125 19.10855469 -8.0640625 18.02960938 -7.453125 16.91796875 C-6.26872596 14.53961907 -5.47673153 12.59065951 -5 10 C-4.34 10 -3.68 10 -3 10 C-3.061875 9.278125 -3.12375 8.55625 -3.1875 7.8125 C-2.95934909 4.39023633 -2.13475313 2.66844141 0 0 Z " fill="#FE8619" transform="translate(203,162)"/>
<path d="M0 0 C0 9.9 0 19.8 0 30 C-3.83625 30.1546875 -3.83625 30.1546875 -7.75 30.3125 C-20.7574623 31.01006107 -33.90264232 33.33604897 -43.3125 43.0625 C-52.15391802 53.81509322 -54.28768116 67.17025499 -54.31884766 80.68212891 C-54.32889328 81.69796051 -54.3389389 82.71379211 -54.34928894 83.76040649 C-54.37991665 87.0824533 -54.39709897 90.40442028 -54.4140625 93.7265625 C-54.43279058 96.04398272 -54.4523652 98.36139623 -54.4727478 100.67880249 C-54.52390163 106.75152623 -54.56361675 112.82427205 -54.60089111 118.89709473 C-54.6410361 125.10462834 -54.69208042 131.31207147 -54.7421875 137.51953125 C-54.83874839 149.67963002 -54.9222079 161.83976666 -55 174 C-64.57 174 -74.14 174 -84 174 C-84 117.57 -84 61.14 -84 3 C-74.43 3 -64.86 3 -55 3 C-54.67 10.59 -54.34 18.18 -54 26 C-51.69 23.03 -49.38 20.06 -47 17 C-33.91671227 3.68718091 -18.16283853 0 0 0 Z " fill="#000000" transform="translate(965,138)"/>
<path d="M0 0 C0 9.9 0 19.8 0 30 C-3.83625 30.1546875 -3.83625 30.1546875 -7.75 30.3125 C-20.77051886 31.01076126 -33.9484295 33.32335611 -43.3125 43.125 C-52.14948686 53.89005672 -54.28788507 66.21642665 -54.31884766 79.77392578 C-54.32889328 80.79951096 -54.3389389 81.82509613 -54.34928894 82.88175964 C-54.37992082 86.2362721 -54.39710016 89.5907055 -54.4140625 92.9453125 C-54.43279024 95.2851529 -54.45236484 97.62498666 -54.4727478 99.96481323 C-54.52390519 106.09672111 -54.56361843 112.22865084 -54.60089111 118.36065674 C-54.64103385 124.62851292 -54.6920792 130.89627947 -54.7421875 137.1640625 C-54.83875262 149.44265139 -54.92221052 161.72127779 -55 174 C-64.57 174 -74.14 174 -84 174 C-84 117.57 -84 61.14 -84 3 C-74.43 3 -64.86 3 -55 3 C-54.67 10.59 -54.34 18.18 -54 26 C-51.69 23.03 -49.38 20.06 -47 17 C-33.91671227 3.68718091 -18.16283853 0 0 0 Z " fill="#000000" transform="translate(1683,138)"/>
<path d="M0 0 C1.32 0.33 2.64 0.66 4 1 C3.21625 1.763125 2.4325 2.52625 1.625 3.3125 C-1.07257717 5.90891805 -1.07257717 5.90891805 -3 9 C-2.44271087 5.65626525 -1.64826111 2.96687001 0 0 Z " fill="#FE8E0D" transform="translate(203,162)"/>
</svg>
